<svg width="267" height="83" viewBox="0 0 267 83" fill="none" xmlns="http://www.w3.org/2000/svg">
<rect width="83" height="83" rx="20" fill="#DAE6FF"/>
<path d="M108.88 29.16H103.06L102.06 32H99.68L104.66 18.08H107.3L112.28 32H109.88L108.88 29.16ZM108.24 27.3L105.98 20.84L103.7 27.3H108.24ZM121.665 32L118.465 26.44H116.725V32H114.445V18.1H119.245C120.312 18.1 121.212 18.2867 121.945 18.66C122.692 19.0333 123.245 19.5333 123.605 20.16C123.979 20.7867 124.165 21.4867 124.165 22.26C124.165 23.1667 123.899 23.9933 123.365 24.74C122.845 25.4733 122.039 25.9733 120.945 26.24L124.385 32H121.665ZM116.725 24.62H119.245C120.099 24.62 120.739 24.4067 121.165 23.98C121.605 23.5533 121.825 22.98 121.825 22.26C121.825 21.54 121.612 20.98 121.185 20.58C120.759 20.1667 120.112 19.96 119.245 19.96H116.725V24.62ZM134.482 13.12L129.042 35.5H126.802L132.222 13.12H134.482ZM149.335 18.1L144.115 32H141.475L136.235 18.1H138.675L142.795 29.66L146.935 18.1H149.335ZM158.462 32L155.262 26.44H153.522V32H151.242V18.1H156.042C157.109 18.1 158.009 18.2867 158.742 18.66C159.489 19.0333 160.042 19.5333 160.402 20.16C160.776 20.7867 160.962 21.4867 160.962 22.26C160.962 23.1667 160.696 23.9933 160.162 24.74C159.642 25.4733 158.836 25.9733 157.742 26.24L161.182 32H158.462ZM153.522 24.62H156.042C156.896 24.62 157.536 24.4067 157.962 23.98C158.402 23.5533 158.622 22.98 158.622 22.26C158.622 21.54 158.409 20.98 157.982 20.58C157.556 20.1667 156.909 19.96 156.042 19.96H153.522V24.62ZM173.654 32.14C172.721 32.14 171.881 31.98 171.134 31.66C170.388 31.3267 169.801 30.86 169.374 30.26C168.948 29.66 168.734 28.96 168.734 28.16H171.174C171.228 28.76 171.461 29.2533 171.874 29.64C172.301 30.0267 172.894 30.22 173.654 30.22C174.441 30.22 175.054 30.0333 175.494 29.66C175.934 29.2733 176.154 28.78 176.154 28.18C176.154 27.7133 176.014 27.3333 175.734 27.04C175.468 26.7467 175.128 26.52 174.714 26.36C174.314 26.2 173.754 26.0267 173.034 25.84C172.128 25.6 171.388 25.36 170.814 25.12C170.254 24.8667 169.774 24.48 169.374 23.96C168.974 23.44 168.774 22.7467 168.774 21.88C168.774 21.08 168.974 20.38 169.374 19.78C169.774 19.18 170.334 18.72 171.054 18.4C171.774 18.08 172.608 17.92 173.554 17.92C174.901 17.92 176.001 18.26 176.854 18.94C177.721 19.6067 178.201 20.5267 178.294 21.7H175.774C175.734 21.1933 175.494 20.76 175.054 20.4C174.614 20.04 174.034 19.86 173.314 19.86C172.661 19.86 172.128 20.0267 171.714 20.36C171.301 20.6933 171.094 21.1733 171.094 21.8C171.094 22.2267 171.221 22.58 171.474 22.86C171.741 23.1267 172.074 23.34 172.474 23.5C172.874 23.66 173.421 23.8333 174.114 24.02C175.034 24.2733 175.781 24.5267 176.354 24.78C176.941 25.0333 177.434 25.4267 177.834 25.96C178.248 26.48 178.454 27.18 178.454 28.06C178.454 28.7667 178.261 29.4333 177.874 30.06C177.501 30.6867 176.948 31.1933 176.214 31.58C175.494 31.9533 174.641 32.14 173.654 32.14ZM185.925 32.18C184.885 32.18 183.945 31.9467 183.105 31.48C182.265 31 181.605 30.3333 181.125 29.48C180.645 28.6133 180.405 27.6133 180.405 26.48C180.405 25.36 180.651 24.3667 181.145 23.5C181.638 22.6333 182.311 21.9667 183.165 21.5C184.018 21.0333 184.971 20.8 186.025 20.8C187.078 20.8 188.031 21.0333 188.885 21.5C189.738 21.9667 190.411 22.6333 190.905 23.5C191.398 24.3667 191.645 25.36 191.645 26.48C191.645 27.6 191.391 28.5933 190.885 29.46C190.378 30.3267 189.685 31 188.805 31.48C187.938 31.9467 186.978 32.18 185.925 32.18ZM185.925 30.2C186.511 30.2 187.058 30.06 187.565 29.78C188.085 29.5 188.505 29.08 188.825 28.52C189.145 27.96 189.305 27.28 189.305 26.48C189.305 25.68 189.151 25.0067 188.845 24.46C188.538 23.9 188.131 23.48 187.625 23.2C187.118 22.92 186.571 22.78 185.985 22.78C185.398 22.78 184.851 22.92 184.345 23.2C183.851 23.48 183.458 23.9 183.165 24.46C182.871 25.0067 182.725 25.68 182.725 26.48C182.725 27.6667 183.025 28.5867 183.625 29.24C184.238 29.88 185.005 30.2 185.925 30.2ZM196.178 17.2V32H193.898V17.2H196.178ZM209.152 20.98V32H206.872V30.7C206.512 31.1533 206.039 31.5133 205.452 31.78C204.879 32.0333 204.265 32.16 203.612 32.16C202.745 32.16 201.965 31.98 201.272 31.62C200.592 31.26 200.052 30.7267 199.652 30.02C199.265 29.3133 199.072 28.46 199.072 27.46V20.98H201.332V27.12C201.332 28.1067 201.579 28.8667 202.072 29.4C202.565 29.92 203.239 30.18 204.092 30.18C204.945 30.18 205.619 29.92 206.112 29.4C206.619 28.8667 206.872 28.1067 206.872 27.12V20.98H209.152ZM214.82 22.84V28.94C214.82 29.3533 214.913 29.6533 215.1 29.84C215.3 30.0133 215.633 30.1 216.1 30.1H217.5V32H215.7C214.673 32 213.887 31.76 213.34 31.28C212.793 30.8 212.52 30.02 212.52 28.94V22.84H211.22V20.98H212.52V18.24H214.82V20.98H217.5V22.84H214.82ZM220.762 19.52C220.348 19.52 220.002 19.38 219.722 19.1C219.442 18.82 219.302 18.4733 219.302 18.06C219.302 17.6467 219.442 17.3 219.722 17.02C220.002 16.74 220.348 16.6 220.762 16.6C221.162 16.6 221.502 16.74 221.782 17.02C222.062 17.3 222.202 17.6467 222.202 18.06C222.202 18.4733 222.062 18.82 221.782 19.1C221.502 19.38 221.162 19.52 220.762 19.52ZM221.882 20.98V32H219.602V20.98H221.882ZM229.655 32.18C228.615 32.18 227.675 31.9467 226.835 31.48C225.995 31 225.335 30.3333 224.855 29.48C224.375 28.6133 224.135 27.6133 224.135 26.48C224.135 25.36 224.382 24.3667 224.875 23.5C225.368 22.6333 226.042 21.9667 226.895 21.5C227.748 21.0333 228.702 20.8 229.755 20.8C230.808 20.8 231.762 21.0333 232.615 21.5C233.468 21.9667 234.142 22.6333 234.635 23.5C235.128 24.3667 235.375 25.36 235.375 26.48C235.375 27.6 235.122 28.5933 234.615 29.46C234.108 30.3267 233.415 31 232.535 31.48C231.668 31.9467 230.708 32.18 229.655 32.18ZM229.655 30.2C230.242 30.2 230.788 30.06 231.295 29.78C231.815 29.5 232.235 29.08 232.555 28.52C232.875 27.96 233.035 27.28 233.035 26.48C233.035 25.68 232.882 25.0067 232.575 24.46C232.268 23.9 231.862 23.48 231.355 23.2C230.848 22.92 230.302 22.78 229.715 22.78C229.128 22.78 228.582 22.92 228.075 23.2C227.582 23.48 227.188 23.9 226.895 24.46C226.602 25.0067 226.455 25.68 226.455 26.48C226.455 27.6667 226.755 28.5867 227.355 29.24C227.968 29.88 228.735 30.2 229.655 30.2ZM243.189 20.8C244.056 20.8 244.829 20.98 245.509 21.34C246.202 21.7 246.742 22.2333 247.129 22.94C247.516 23.6467 247.709 24.5 247.709 25.5V32H245.449V25.84C245.449 24.8533 245.202 24.1 244.709 23.58C244.216 23.0467 243.542 22.78 242.689 22.78C241.836 22.78 241.156 23.0467 240.649 23.58C240.156 24.1 239.909 24.8533 239.909 25.84V32H237.629V20.98H239.909V22.24C240.282 21.7867 240.756 21.4333 241.329 21.18C241.916 20.9267 242.536 20.8 243.189 20.8ZM254.617 32.18C253.751 32.18 252.971 32.0267 252.277 31.72C251.597 31.4 251.057 30.9733 250.657 30.44C250.257 29.8933 250.044 29.2867 250.017 28.62H252.377C252.417 29.0867 252.637 29.48 253.037 29.8C253.451 30.1067 253.964 30.26 254.577 30.26C255.217 30.26 255.711 30.14 256.057 29.9C256.417 29.6467 256.597 29.3267 256.597 28.94C256.597 28.5267 256.397 28.22 255.997 28.02C255.611 27.82 254.991 27.6 254.137 27.36C253.311 27.1333 252.637 26.9133 252.117 26.7C251.597 26.4867 251.144 26.16 250.757 25.72C250.384 25.28 250.197 24.7 250.197 23.98C250.197 23.3933 250.371 22.86 250.717 22.38C251.064 21.8867 251.557 21.5 252.197 21.22C252.851 20.94 253.597 20.8 254.437 20.8C255.691 20.8 256.697 21.12 257.457 21.76C258.231 22.3867 258.644 23.2467 258.697 24.34H256.417C256.377 23.8467 256.177 23.4533 255.817 23.16C255.457 22.8667 254.971 22.72 254.357 22.72C253.757 22.72 253.297 22.8333 252.977 23.06C252.657 23.2867 252.497 23.5867 252.497 23.96C252.497 24.2533 252.604 24.5 252.817 24.7C253.031 24.9 253.291 25.06 253.597 25.18C253.904 25.2867 254.357 25.4267 254.957 25.6C255.757 25.8133 256.411 26.0333 256.917 26.26C257.437 26.4733 257.884 26.7933 258.257 27.22C258.631 27.6467 258.824 28.2133 258.837 28.92C258.837 29.5467 258.664 30.1067 258.317 30.6C257.971 31.0933 257.477 31.48 256.837 31.76C256.211 32.04 255.471 32.18 254.617 32.18Z" fill="black"/>
<path d="M103.52 58.89H107.18V60H102.155V49.545H103.52V58.89ZM112.215 60.135C111.445 60.135 110.745 59.96 110.115 59.61C109.495 59.26 109.005 58.765 108.645 58.125C108.295 57.475 108.12 56.725 108.12 55.875C108.12 55.035 108.3 54.295 108.66 53.655C109.03 53.005 109.53 52.51 110.16 52.17C110.79 51.82 111.495 51.645 112.275 51.645C113.055 51.645 113.76 51.82 114.39 52.17C115.02 52.51 115.515 53 115.875 53.64C116.245 54.28 116.43 55.025 116.43 55.875C116.43 56.725 116.24 57.475 115.86 58.125C115.49 58.765 114.985 59.26 114.345 59.61C113.705 59.96 112.995 60.135 112.215 60.135ZM112.215 58.935C112.705 58.935 113.165 58.82 113.595 58.59C114.025 58.36 114.37 58.015 114.63 57.555C114.9 57.095 115.035 56.535 115.035 55.875C115.035 55.215 114.905 54.655 114.645 54.195C114.385 53.735 114.045 53.395 113.625 53.175C113.205 52.945 112.75 52.83 112.26 52.83C111.76 52.83 111.3 52.945 110.88 53.175C110.47 53.395 110.14 53.735 109.89 54.195C109.64 54.655 109.515 55.215 109.515 55.875C109.515 56.545 109.635 57.11 109.875 57.57C110.125 58.03 110.455 58.375 110.865 58.605C111.275 58.825 111.725 58.935 112.215 58.935ZM119.589 53.115C119.829 52.645 120.169 52.28 120.609 52.02C121.059 51.76 121.604 51.63 122.244 51.63V53.04H121.884C120.354 53.04 119.589 53.87 119.589 55.53V60H118.224V51.78H119.589V53.115ZM131.32 55.575C131.32 55.835 131.305 56.11 131.275 56.4H124.705C124.755 57.21 125.03 57.845 125.53 58.305C126.04 58.755 126.655 58.98 127.375 58.98C127.965 58.98 128.455 58.845 128.845 58.575C129.245 58.295 129.525 57.925 129.685 57.465H131.155C130.935 58.255 130.495 58.9 129.835 59.4C129.175 59.89 128.355 60.135 127.375 60.135C126.595 60.135 125.895 59.96 125.275 59.61C124.665 59.26 124.185 58.765 123.835 58.125C123.485 57.475 123.31 56.725 123.31 55.875C123.31 55.025 123.48 54.28 123.82 53.64C124.16 53 124.635 52.51 125.245 52.17C125.865 51.82 126.575 51.645 127.375 51.645C128.155 51.645 128.845 51.815 129.445 52.155C130.045 52.495 130.505 52.965 130.825 53.565C131.155 54.155 131.32 54.825 131.32 55.575ZM129.91 55.29C129.91 54.77 129.795 54.325 129.565 53.955C129.335 53.575 129.02 53.29 128.62 53.1C128.23 52.9 127.795 52.8 127.315 52.8C126.625 52.8 126.035 53.02 125.545 53.46C125.065 53.9 124.79 54.51 124.72 55.29H129.91ZM143.007 51.63C143.647 51.63 144.217 51.765 144.717 52.035C145.217 52.295 145.612 52.69 145.902 53.22C146.192 53.75 146.337 54.395 146.337 55.155V60H144.987V55.35C144.987 54.53 144.782 53.905 144.372 53.475C143.972 53.035 143.427 52.815 142.737 52.815C142.027 52.815 141.462 53.045 141.042 53.505C140.622 53.955 140.412 54.61 140.412 55.47V60H139.062V55.35C139.062 54.53 138.857 53.905 138.447 53.475C138.047 53.035 137.502 52.815 136.812 52.815C136.102 52.815 135.537 53.045 135.117 53.505C134.697 53.955 134.487 54.61 134.487 55.47V60H133.122V51.78H134.487V52.965C134.757 52.535 135.117 52.205 135.567 51.975C136.027 51.745 136.532 51.63 137.082 51.63C137.772 51.63 138.382 51.785 138.912 52.095C139.442 52.405 139.837 52.86 140.097 53.46C140.327 52.88 140.707 52.43 141.237 52.11C141.767 51.79 142.357 51.63 143.007 51.63ZM153.94 49.545V60H152.575V49.545H153.94ZM157.631 53.295C157.901 52.825 158.301 52.435 158.831 52.125C159.371 51.805 159.996 51.645 160.706 51.645C161.436 51.645 162.096 51.82 162.686 52.17C163.286 52.52 163.756 53.015 164.096 53.655C164.436 54.285 164.606 55.02 164.606 55.86C164.606 56.69 164.436 57.43 164.096 58.08C163.756 58.73 163.286 59.235 162.686 59.595C162.096 59.955 161.436 60.135 160.706 60.135C160.006 60.135 159.386 59.98 158.846 59.67C158.316 59.35 157.911 58.955 157.631 58.485V63.9H156.266V51.78H157.631V53.295ZM163.211 55.86C163.211 55.24 163.086 54.7 162.836 54.24C162.586 53.78 162.246 53.43 161.816 53.19C161.396 52.95 160.931 52.83 160.421 52.83C159.921 52.83 159.456 52.955 159.026 53.205C158.606 53.445 158.266 53.8 158.006 54.27C157.756 54.73 157.631 55.265 157.631 55.875C157.631 56.495 157.756 57.04 158.006 57.51C158.266 57.97 158.606 58.325 159.026 58.575C159.456 58.815 159.921 58.935 160.421 58.935C160.931 58.935 161.396 58.815 161.816 58.575C162.246 58.325 162.586 57.97 162.836 57.51C163.086 57.04 163.211 56.49 163.211 55.86ZM169.313 60.135C168.683 60.135 168.118 60.03 167.618 59.82C167.118 59.6 166.723 59.3 166.433 58.92C166.143 58.53 165.983 58.085 165.953 57.585H167.363C167.403 57.995 167.593 58.33 167.933 58.59C168.283 58.85 168.738 58.98 169.298 58.98C169.818 58.98 170.228 58.865 170.528 58.635C170.828 58.405 170.978 58.115 170.978 57.765C170.978 57.405 170.818 57.14 170.498 56.97C170.178 56.79 169.683 56.615 169.013 56.445C168.403 56.285 167.903 56.125 167.513 55.965C167.133 55.795 166.803 55.55 166.523 55.23C166.253 54.9 166.118 54.47 166.118 53.94C166.118 53.52 166.243 53.135 166.493 52.785C166.743 52.435 167.098 52.16 167.558 51.96C168.018 51.75 168.543 51.645 169.133 51.645C170.043 51.645 170.778 51.875 171.338 52.335C171.898 52.795 172.198 53.425 172.238 54.225H170.873C170.843 53.795 170.668 53.45 170.348 53.19C170.038 52.93 169.618 52.8 169.088 52.8C168.598 52.8 168.208 52.905 167.918 53.115C167.628 53.325 167.483 53.6 167.483 53.94C167.483 54.21 167.568 54.435 167.738 54.615C167.918 54.785 168.138 54.925 168.398 55.035C168.668 55.135 169.038 55.25 169.508 55.38C170.098 55.54 170.578 55.7 170.948 55.86C171.318 56.01 171.633 56.24 171.893 56.55C172.163 56.86 172.303 57.265 172.313 57.765C172.313 58.215 172.188 58.62 171.938 58.98C171.688 59.34 171.333 59.625 170.873 59.835C170.423 60.035 169.903 60.135 169.313 60.135ZM181.53 51.78V60H180.165V58.785C179.905 59.205 179.54 59.535 179.07 59.775C178.61 60.005 178.1 60.12 177.54 60.12C176.9 60.12 176.325 59.99 175.815 59.73C175.305 59.46 174.9 59.06 174.6 58.53C174.31 58 174.165 57.355 174.165 56.595V51.78H175.515V56.415C175.515 57.225 175.72 57.85 176.13 58.29C176.54 58.72 177.1 58.935 177.81 58.935C178.54 58.935 179.115 58.71 179.535 58.26C179.955 57.81 180.165 57.155 180.165 56.295V51.78H181.53ZM193.72 51.63C194.36 51.63 194.93 51.765 195.43 52.035C195.93 52.295 196.325 52.69 196.615 53.22C196.905 53.75 197.05 54.395 197.05 55.155V60H195.7V55.35C195.7 54.53 195.495 53.905 195.085 53.475C194.685 53.035 194.14 52.815 193.45 52.815C192.74 52.815 192.175 53.045 191.755 53.505C191.335 53.955 191.125 54.61 191.125 55.47V60H189.775V55.35C189.775 54.53 189.57 53.905 189.16 53.475C188.76 53.035 188.215 52.815 187.525 52.815C186.815 52.815 186.25 53.045 185.83 53.505C185.41 53.955 185.2 54.61 185.2 55.47V60H183.835V51.78H185.2V52.965C185.47 52.535 185.83 52.205 186.28 51.975C186.74 51.745 187.245 51.63 187.795 51.63C188.485 51.63 189.095 51.785 189.625 52.095C190.155 52.405 190.55 52.86 190.81 53.46C191.04 52.88 191.42 52.43 191.95 52.11C192.48 51.79 193.07 51.63 193.72 51.63ZM203.993 50.445C203.733 50.445 203.513 50.355 203.333 50.175C203.153 49.995 203.063 49.775 203.063 49.515C203.063 49.255 203.153 49.035 203.333 48.855C203.513 48.675 203.733 48.585 203.993 48.585C204.243 48.585 204.453 48.675 204.623 48.855C204.803 49.035 204.893 49.255 204.893 49.515C204.893 49.775 204.803 49.995 204.623 50.175C204.453 50.355 204.243 50.445 203.993 50.445ZM204.653 51.78V60H203.288V51.78H204.653ZM209.889 60.135C209.259 60.135 208.694 60.03 208.194 59.82C207.694 59.6 207.299 59.3 207.009 58.92C206.719 58.53 206.559 58.085 206.529 57.585H207.939C207.979 57.995 208.169 58.33 208.509 58.59C208.859 58.85 209.314 58.98 209.874 58.98C210.394 58.98 210.804 58.865 211.104 58.635C211.404 58.405 211.554 58.115 211.554 57.765C211.554 57.405 211.394 57.14 211.074 56.97C210.754 56.79 210.259 56.615 209.589 56.445C208.979 56.285 208.479 56.125 208.089 55.965C207.709 55.795 207.379 55.55 207.099 55.23C206.829 54.9 206.694 54.47 206.694 53.94C206.694 53.52 206.819 53.135 207.069 52.785C207.319 52.435 207.674 52.16 208.134 51.96C208.594 51.75 209.119 51.645 209.709 51.645C210.619 51.645 211.354 51.875 211.914 52.335C212.474 52.795 212.774 53.425 212.814 54.225H211.449C211.419 53.795 211.244 53.45 210.924 53.19C210.614 52.93 210.194 52.8 209.664 52.8C209.174 52.8 208.784 52.905 208.494 53.115C208.204 53.325 208.059 53.6 208.059 53.94C208.059 54.21 208.144 54.435 208.314 54.615C208.494 54.785 208.714 54.925 208.974 55.035C209.244 55.135 209.614 55.25 210.084 55.38C210.674 55.54 211.154 55.7 211.524 55.86C211.894 56.01 212.209 56.24 212.469 56.55C212.739 56.86 212.879 57.265 212.889 57.765C212.889 58.215 212.764 58.62 212.514 58.98C212.264 59.34 211.909 59.625 211.449 59.835C210.999 60.035 210.479 60.135 209.889 60.135ZM221.725 60.135C221.095 60.135 220.53 60.03 220.03 59.82C219.53 59.6 219.135 59.3 218.845 58.92C218.555 58.53 218.395 58.085 218.365 57.585H219.775C219.815 57.995 220.005 58.33 220.345 58.59C220.695 58.85 221.15 58.98 221.71 58.98C222.23 58.98 222.64 58.865 222.94 58.635C223.24 58.405 223.39 58.115 223.39 57.765C223.39 57.405 223.23 57.14 222.91 56.97C222.59 56.79 222.095 56.615 221.425 56.445C220.815 56.285 220.315 56.125 219.925 55.965C219.545 55.795 219.215 55.55 218.935 55.23C218.665 54.9 218.53 54.47 218.53 53.94C218.53 53.52 218.655 53.135 218.905 52.785C219.155 52.435 219.51 52.16 219.97 51.96C220.43 51.75 220.955 51.645 221.545 51.645C222.455 51.645 223.19 51.875 223.75 52.335C224.31 52.795 224.61 53.425 224.65 54.225H223.285C223.255 53.795 223.08 53.45 222.76 53.19C222.45 52.93 222.03 52.8 221.5 52.8C221.01 52.8 220.62 52.905 220.33 53.115C220.04 53.325 219.895 53.6 219.895 53.94C219.895 54.21 219.98 54.435 220.15 54.615C220.33 54.785 220.55 54.925 220.81 55.035C221.08 55.135 221.45 55.25 221.92 55.38C222.51 55.54 222.99 55.7 223.36 55.86C223.73 56.01 224.045 56.24 224.305 56.55C224.575 56.86 224.715 57.265 224.725 57.765C224.725 58.215 224.6 58.62 224.35 58.98C224.1 59.34 223.745 59.625 223.285 59.835C222.835 60.035 222.315 60.135 221.725 60.135ZM227.357 50.445C227.097 50.445 226.877 50.355 226.697 50.175C226.517 49.995 226.427 49.775 226.427 49.515C226.427 49.255 226.517 49.035 226.697 48.855C226.877 48.675 227.097 48.585 227.357 48.585C227.607 48.585 227.817 48.675 227.987 48.855C228.167 49.035 228.257 49.255 228.257 49.515C228.257 49.775 228.167 49.995 227.987 50.175C227.817 50.355 227.607 50.445 227.357 50.445ZM228.017 51.78V60H226.652V51.78H228.017ZM240.228 51.63C240.868 51.63 241.438 51.765 241.938 52.035C242.438 52.295 242.833 52.69 243.123 53.22C243.413 53.75 243.558 54.395 243.558 55.155V60H242.208V55.35C242.208 54.53 242.003 53.905 241.593 53.475C241.193 53.035 240.648 52.815 239.958 52.815C239.248 52.815 238.683 53.045 238.263 53.505C237.843 53.955 237.633 54.61 237.633 55.47V60H236.283V55.35C236.283 54.53 236.078 53.905 235.668 53.475C235.268 53.035 234.723 52.815 234.033 52.815C233.323 52.815 232.758 53.045 232.338 53.505C231.918 53.955 231.708 54.61 231.708 55.47V60H230.343V51.78H231.708V52.965C231.978 52.535 232.338 52.205 232.788 51.975C233.248 51.745 233.753 51.63 234.303 51.63C234.993 51.63 235.603 51.785 236.133 52.095C236.663 52.405 237.058 52.86 237.318 53.46C237.548 52.88 237.928 52.43 238.458 52.11C238.988 51.79 239.578 51.63 240.228 51.63ZM247.163 53.295C247.433 52.825 247.833 52.435 248.363 52.125C248.903 51.805 249.528 51.645 250.238 51.645C250.968 51.645 251.628 51.82 252.218 52.17C252.818 52.52 253.288 53.015 253.628 53.655C253.968 54.285 254.138 55.02 254.138 55.86C254.138 56.69 253.968 57.43 253.628 58.08C253.288 58.73 252.818 59.235 252.218 59.595C251.628 59.955 250.968 60.135 250.238 60.135C249.538 60.135 248.918 59.98 248.378 59.67C247.848 59.35 247.443 58.955 247.163 58.485V63.9H245.798V51.78H247.163V53.295ZM252.743 55.86C252.743 55.24 252.618 54.7 252.368 54.24C252.118 53.78 251.778 53.43 251.348 53.19C250.928 52.95 250.463 52.83 249.953 52.83C249.453 52.83 248.988 52.955 248.558 53.205C248.138 53.445 247.798 53.8 247.538 54.27C247.288 54.73 247.163 55.265 247.163 55.875C247.163 56.495 247.288 57.04 247.538 57.51C247.798 57.97 248.138 58.325 248.558 58.575C248.988 58.815 249.453 58.935 249.953 58.935C250.463 58.935 250.928 58.815 251.348 58.575C251.778 58.325 252.118 57.97 252.368 57.51C252.618 57.04 252.743 56.49 252.743 55.86ZM257.299 48.9V60H255.934V48.9H257.299ZM266.706 51.78L261.756 63.87H260.346L261.966 59.91L258.651 51.78H260.166L262.746 58.44L265.296 51.78H266.706Z" fill="#969696"/>
<g clip-path="url(#clip0_2_1077)">
<path d="M40.8125 41.5C40.433 41.5 40.125 41.192 40.125 40.8125V33.9375C40.125 33.558 40.433 33.25 40.8125 33.25H42.875C44.3916 33.25 45.625 34.4834 45.625 36C45.625 37.5166 44.3916 38.75 42.875 38.75H41.5V40.8125C41.5 41.192 41.192 41.5 40.8125 41.5ZM41.5 37.375H42.875C43.634 37.375 44.25 36.7576 44.25 36C44.25 35.2424 43.634 34.625 42.875 34.625H41.5V37.375Z" fill="#00329B"/>
<path d="M44.9376 41.5001C44.7616 41.5001 44.5856 41.4327 44.4508 41.2993L41.7008 38.5493C41.4327 38.2812 41.4327 37.8453 41.7008 37.5772C41.969 37.3091 42.4048 37.3091 42.673 37.5772L45.423 40.3272C45.6911 40.5953 45.6911 41.0312 45.423 41.2993C45.2896 41.4327 45.1136 41.5001 44.9376 41.5001V41.5001Z" fill="#00329B"/>
<path d="M34.625 41.5C34.3211 41.5 34.0544 41.3006 33.9664 41.0105L31.9039 34.1355C31.7939 33.7725 32.0001 33.3888 32.3645 33.2788C32.7275 33.1716 33.1111 33.3765 33.2211 33.7395L34.625 38.42L36.0289 33.7408C36.1375 33.3765 36.5239 33.173 36.8841 33.2802C37.2485 33.3902 37.4547 33.7725 37.3447 34.1368L35.2822 41.0118C35.1956 41.3006 34.9289 41.5 34.625 41.5V41.5Z" fill="#00329B"/>
<path d="M50.4375 37.375C49.3004 37.375 48.375 36.4496 48.375 35.3125C48.375 34.1754 49.3004 33.25 50.4375 33.25C51.5746 33.25 52.5 34.1754 52.5 35.3125C52.5 36.4496 51.5746 37.375 50.4375 37.375ZM50.4375 34.625C50.0594 34.625 49.75 34.933 49.75 35.3125C49.75 35.692 50.0594 36 50.4375 36C50.8156 36 51.125 35.692 51.125 35.3125C51.125 34.933 50.8156 34.625 50.4375 34.625Z" fill="#00329B"/>
<path d="M54.5625 48.375H45.8588C45.5631 48.375 45.3005 48.1853 45.2056 47.9048L44.602 46.0898C44.5071 45.8161 44.2417 45.625 43.9475 45.625H39.0525C38.7583 45.625 38.4943 45.8161 38.3939 46.1008L37.793 47.9061C37.6995 48.1853 37.4369 48.375 37.1412 48.375H28.4375C26.5414 48.375 25 46.8323 25 44.9375V32.5625C25 30.6678 26.5414 29.125 28.4375 29.125H54.5625C56.4586 29.125 58 30.6678 58 32.5625V44.9375C58 46.8323 56.4586 48.375 54.5625 48.375V48.375ZM46.3537 47H54.5625C55.6996 47 56.625 46.0746 56.625 44.9375V32.5625C56.625 31.4254 55.6996 30.5 54.5625 30.5H28.4375C27.3004 30.5 26.375 31.4254 26.375 32.5625V44.9375C26.375 46.0746 27.3004 47 28.4375 47H36.6463L37.0931 45.6553C37.3901 44.811 38.1753 44.25 39.0525 44.25H43.9489C44.8261 44.25 45.6113 44.811 45.9041 45.6456L46.3537 47Z" fill="#00329B"/>
<path d="M53.1875 30.5C52.808 30.5 52.5 30.192 52.5 29.8125V28.4375C52.5 27.3004 51.5746 26.375 50.4375 26.375H32.5625C31.4254 26.375 30.5 27.3004 30.5 28.4375V29.8125C30.5 30.192 30.192 30.5 29.8125 30.5C29.433 30.5 29.125 30.192 29.125 29.8125V28.4375C29.125 26.5427 30.6664 25 32.5625 25H50.4375C52.3336 25 53.875 26.5427 53.875 28.4375V29.8125C53.875 30.192 53.567 30.5 53.1875 30.5Z" fill="#00329B"/>
<path d="M40.1251 58C39.9174 58 39.7098 57.9051 39.5751 57.725C39.3482 57.4211 39.4101 56.9907 39.7139 56.7625L41.7311 55.25L39.7126 53.7375C39.4087 53.5092 39.3468 53.0789 39.5737 52.775C39.8033 52.4697 40.2337 52.412 40.5362 52.6375L43.2862 54.7C43.4594 54.8292 43.5612 55.0341 43.5612 55.25C43.5612 55.4658 43.4594 55.6707 43.2862 55.8L40.5362 57.8625C40.4138 57.9546 40.2681 58 40.1251 58V58Z" fill="#00329B"/>
<path d="M41.5 55.9375C40.0906 55.9375 38.6537 55.8852 37.2306 55.7848C31.3181 55.3586 25 53.9107 25 51.125C25 50.8348 25.0756 50.5365 25.2241 50.2395C25.3946 49.8985 25.8099 49.7623 26.1481 49.9328C26.4864 50.1033 26.6239 50.5158 26.4547 50.8555C26.4025 50.96 26.375 51.0507 26.375 51.125C26.375 52.1328 29.8551 53.875 37.3282 54.414C38.7294 54.513 40.1209 54.6106 41.5289 54.5625C41.8534 54.5625 42.1655 54.5625 42.4762 54.5501C42.8736 54.5336 43.1761 54.8292 43.1926 55.2087C43.2077 55.5882 42.9121 55.9086 42.534 55.9237C42.193 55.9375 41.8534 55.9375 41.5 55.9375V55.9375Z" fill="#00329B"/>
<path d="M46.2974 55.7312C45.9441 55.7312 45.6429 55.4589 45.6141 55.1001C45.5838 54.7219 45.8643 54.3892 46.2424 54.3576C53.3264 53.7787 56.6251 52.0861 56.6251 51.125C56.6251 51.0507 56.5975 50.96 56.5453 50.8555C56.3762 50.5158 56.5137 50.1033 56.8519 49.9328C57.1888 49.761 57.604 49.8985 57.7759 50.2395C57.9244 50.5365 58.0001 50.8348 58.0001 51.125C58.0001 54.5116 49.0873 55.5057 46.3552 55.7298C46.3373 55.7312 46.3167 55.7312 46.2974 55.7312Z" fill="#00329B"/>
</g>
<defs>
<clipPath id="clip0_2_1077">
<rect width="33" height="33" fill="white" transform="translate(25 25)"/>
</clipPath>
</defs>
</svg>
