<svg width="267" height="83" viewBox="0 0 267 83" fill="none" xmlns="http://www.w3.org/2000/svg">
<rect width="83" height="83" rx="20" fill="#ECFFDA"/>
<path d="M106.08 32.14C105.147 32.14 104.307 31.98 103.56 31.66C102.813 31.3267 102.227 30.86 101.8 30.26C101.373 29.66 101.16 28.96 101.16 28.16H103.6C103.653 28.76 103.887 29.2533 104.3 29.64C104.727 30.0267 105.32 30.22 106.08 30.22C106.867 30.22 107.48 30.0333 107.92 29.66C108.36 29.2733 108.58 28.78 108.58 28.18C108.58 27.7133 108.44 27.3333 108.16 27.04C107.893 26.7467 107.553 26.52 107.14 26.36C106.74 26.2 106.18 26.0267 105.46 25.84C104.553 25.6 103.813 25.36 103.24 25.12C102.68 24.8667 102.2 24.48 101.8 23.96C101.4 23.44 101.2 22.7467 101.2 21.88C101.2 21.08 101.4 20.38 101.8 19.78C102.2 19.18 102.76 18.72 103.48 18.4C104.2 18.08 105.033 17.92 105.98 17.92C107.327 17.92 108.427 18.26 109.28 18.94C110.147 19.6067 110.627 20.5267 110.72 21.7H108.2C108.16 21.1933 107.92 20.76 107.48 20.4C107.04 20.04 106.46 19.86 105.74 19.86C105.087 19.86 104.553 20.0267 104.14 20.36C103.727 20.6933 103.52 21.1733 103.52 21.8C103.52 22.2267 103.647 22.58 103.9 22.86C104.167 23.1267 104.5 23.34 104.9 23.5C105.3 23.66 105.847 23.8333 106.54 24.02C107.46 24.2733 108.207 24.5267 108.78 24.78C109.367 25.0333 109.86 25.4267 110.26 25.96C110.673 26.48 110.88 27.18 110.88 28.06C110.88 28.7667 110.687 29.4333 110.3 30.06C109.927 30.6867 109.373 31.1933 108.64 31.58C107.92 31.9533 107.067 32.14 106.08 32.14ZM115.85 19.94V24.02H120.65V25.88H115.85V30.14H121.25V32H113.57V18.08H121.25V19.94H115.85ZM130.399 32.14C129.105 32.14 127.912 31.84 126.819 31.24C125.739 30.6267 124.879 29.78 124.239 28.7C123.612 27.6067 123.299 26.38 123.299 25.02C123.299 23.66 123.612 22.44 124.239 21.36C124.879 20.28 125.739 19.44 126.819 18.84C127.912 18.2267 129.105 17.92 130.399 17.92C131.705 17.92 132.899 18.2267 133.979 18.84C135.072 19.44 135.932 20.28 136.559 21.36C137.185 22.44 137.499 23.66 137.499 25.02C137.499 26.38 137.185 27.6067 136.559 28.7C135.932 29.78 135.072 30.6267 133.979 31.24C132.899 31.84 131.705 32.14 130.399 32.14ZM130.399 30.16C131.319 30.16 132.139 29.9533 132.859 29.54C133.579 29.1133 134.139 28.5133 134.539 27.74C134.952 26.9533 135.159 26.0467 135.159 25.02C135.159 23.9933 134.952 23.0933 134.539 22.32C134.139 21.5467 133.579 20.9533 132.859 20.54C132.139 20.1267 131.319 19.92 130.399 19.92C129.479 19.92 128.659 20.1267 127.939 20.54C127.219 20.9533 126.652 21.5467 126.239 22.32C125.839 23.0933 125.639 23.9933 125.639 25.02C125.639 26.0467 125.839 26.9533 126.239 27.74C126.652 28.5133 127.219 29.1133 127.939 29.54C128.659 29.9533 129.479 30.16 130.399 30.16Z" fill="black"/>
<path d="M103.52 58.89H107.18V60H102.155V49.545H103.52V58.89ZM112.215 60.135C111.445 60.135 110.745 59.96 110.115 59.61C109.495 59.26 109.005 58.765 108.645 58.125C108.295 57.475 108.12 56.725 108.12 55.875C108.12 55.035 108.3 54.295 108.66 53.655C109.03 53.005 109.53 52.51 110.16 52.17C110.79 51.82 111.495 51.645 112.275 51.645C113.055 51.645 113.76 51.82 114.39 52.17C115.02 52.51 115.515 53 115.875 53.64C116.245 54.28 116.43 55.025 116.43 55.875C116.43 56.725 116.24 57.475 115.86 58.125C115.49 58.765 114.985 59.26 114.345 59.61C113.705 59.96 112.995 60.135 112.215 60.135ZM112.215 58.935C112.705 58.935 113.165 58.82 113.595 58.59C114.025 58.36 114.37 58.015 114.63 57.555C114.9 57.095 115.035 56.535 115.035 55.875C115.035 55.215 114.905 54.655 114.645 54.195C114.385 53.735 114.045 53.395 113.625 53.175C113.205 52.945 112.75 52.83 112.26 52.83C111.76 52.83 111.3 52.945 110.88 53.175C110.47 53.395 110.14 53.735 109.89 54.195C109.64 54.655 109.515 55.215 109.515 55.875C109.515 56.545 109.635 57.11 109.875 57.57C110.125 58.03 110.455 58.375 110.865 58.605C111.275 58.825 111.725 58.935 112.215 58.935ZM119.589 53.115C119.829 52.645 120.169 52.28 120.609 52.02C121.059 51.76 121.604 51.63 122.244 51.63V53.04H121.884C120.354 53.04 119.589 53.87 119.589 55.53V60H118.224V51.78H119.589V53.115ZM131.32 55.575C131.32 55.835 131.305 56.11 131.275 56.4H124.705C124.755 57.21 125.03 57.845 125.53 58.305C126.04 58.755 126.655 58.98 127.375 58.98C127.965 58.98 128.455 58.845 128.845 58.575C129.245 58.295 129.525 57.925 129.685 57.465H131.155C130.935 58.255 130.495 58.9 129.835 59.4C129.175 59.89 128.355 60.135 127.375 60.135C126.595 60.135 125.895 59.96 125.275 59.61C124.665 59.26 124.185 58.765 123.835 58.125C123.485 57.475 123.31 56.725 123.31 55.875C123.31 55.025 123.48 54.28 123.82 53.64C124.16 53 124.635 52.51 125.245 52.17C125.865 51.82 126.575 51.645 127.375 51.645C128.155 51.645 128.845 51.815 129.445 52.155C130.045 52.495 130.505 52.965 130.825 53.565C131.155 54.155 131.32 54.825 131.32 55.575ZM129.91 55.29C129.91 54.77 129.795 54.325 129.565 53.955C129.335 53.575 129.02 53.29 128.62 53.1C128.23 52.9 127.795 52.8 127.315 52.8C126.625 52.8 126.035 53.02 125.545 53.46C125.065 53.9 124.79 54.51 124.72 55.29H129.91ZM143.007 51.63C143.647 51.63 144.217 51.765 144.717 52.035C145.217 52.295 145.612 52.69 145.902 53.22C146.192 53.75 146.337 54.395 146.337 55.155V60H144.987V55.35C144.987 54.53 144.782 53.905 144.372 53.475C143.972 53.035 143.427 52.815 142.737 52.815C142.027 52.815 141.462 53.045 141.042 53.505C140.622 53.955 140.412 54.61 140.412 55.47V60H139.062V55.35C139.062 54.53 138.857 53.905 138.447 53.475C138.047 53.035 137.502 52.815 136.812 52.815C136.102 52.815 135.537 53.045 135.117 53.505C134.697 53.955 134.487 54.61 134.487 55.47V60H133.122V51.78H134.487V52.965C134.757 52.535 135.117 52.205 135.567 51.975C136.027 51.745 136.532 51.63 137.082 51.63C137.772 51.63 138.382 51.785 138.912 52.095C139.442 52.405 139.837 52.86 140.097 53.46C140.327 52.88 140.707 52.43 141.237 52.11C141.767 51.79 142.357 51.63 143.007 51.63ZM153.94 49.545V60H152.575V49.545H153.94ZM157.631 53.295C157.901 52.825 158.301 52.435 158.831 52.125C159.371 51.805 159.996 51.645 160.706 51.645C161.436 51.645 162.096 51.82 162.686 52.17C163.286 52.52 163.756 53.015 164.096 53.655C164.436 54.285 164.606 55.02 164.606 55.86C164.606 56.69 164.436 57.43 164.096 58.08C163.756 58.73 163.286 59.235 162.686 59.595C162.096 59.955 161.436 60.135 160.706 60.135C160.006 60.135 159.386 59.98 158.846 59.67C158.316 59.35 157.911 58.955 157.631 58.485V63.9H156.266V51.78H157.631V53.295ZM163.211 55.86C163.211 55.24 163.086 54.7 162.836 54.24C162.586 53.78 162.246 53.43 161.816 53.19C161.396 52.95 160.931 52.83 160.421 52.83C159.921 52.83 159.456 52.955 159.026 53.205C158.606 53.445 158.266 53.8 158.006 54.27C157.756 54.73 157.631 55.265 157.631 55.875C157.631 56.495 157.756 57.04 158.006 57.51C158.266 57.97 158.606 58.325 159.026 58.575C159.456 58.815 159.921 58.935 160.421 58.935C160.931 58.935 161.396 58.815 161.816 58.575C162.246 58.325 162.586 57.97 162.836 57.51C163.086 57.04 163.211 56.49 163.211 55.86ZM169.313 60.135C168.683 60.135 168.118 60.03 167.618 59.82C167.118 59.6 166.723 59.3 166.433 58.92C166.143 58.53 165.983 58.085 165.953 57.585H167.363C167.403 57.995 167.593 58.33 167.933 58.59C168.283 58.85 168.738 58.98 169.298 58.98C169.818 58.98 170.228 58.865 170.528 58.635C170.828 58.405 170.978 58.115 170.978 57.765C170.978 57.405 170.818 57.14 170.498 56.97C170.178 56.79 169.683 56.615 169.013 56.445C168.403 56.285 167.903 56.125 167.513 55.965C167.133 55.795 166.803 55.55 166.523 55.23C166.253 54.9 166.118 54.47 166.118 53.94C166.118 53.52 166.243 53.135 166.493 52.785C166.743 52.435 167.098 52.16 167.558 51.96C168.018 51.75 168.543 51.645 169.133 51.645C170.043 51.645 170.778 51.875 171.338 52.335C171.898 52.795 172.198 53.425 172.238 54.225H170.873C170.843 53.795 170.668 53.45 170.348 53.19C170.038 52.93 169.618 52.8 169.088 52.8C168.598 52.8 168.208 52.905 167.918 53.115C167.628 53.325 167.483 53.6 167.483 53.94C167.483 54.21 167.568 54.435 167.738 54.615C167.918 54.785 168.138 54.925 168.398 55.035C168.668 55.135 169.038 55.25 169.508 55.38C170.098 55.54 170.578 55.7 170.948 55.86C171.318 56.01 171.633 56.24 171.893 56.55C172.163 56.86 172.303 57.265 172.313 57.765C172.313 58.215 172.188 58.62 171.938 58.98C171.688 59.34 171.333 59.625 170.873 59.835C170.423 60.035 169.903 60.135 169.313 60.135ZM181.53 51.78V60H180.165V58.785C179.905 59.205 179.54 59.535 179.07 59.775C178.61 60.005 178.1 60.12 177.54 60.12C176.9 60.12 176.325 59.99 175.815 59.73C175.305 59.46 174.9 59.06 174.6 58.53C174.31 58 174.165 57.355 174.165 56.595V51.78H175.515V56.415C175.515 57.225 175.72 57.85 176.13 58.29C176.54 58.72 177.1 58.935 177.81 58.935C178.54 58.935 179.115 58.71 179.535 58.26C179.955 57.81 180.165 57.155 180.165 56.295V51.78H181.53ZM193.72 51.63C194.36 51.63 194.93 51.765 195.43 52.035C195.93 52.295 196.325 52.69 196.615 53.22C196.905 53.75 197.05 54.395 197.05 55.155V60H195.7V55.35C195.7 54.53 195.495 53.905 195.085 53.475C194.685 53.035 194.14 52.815 193.45 52.815C192.74 52.815 192.175 53.045 191.755 53.505C191.335 53.955 191.125 54.61 191.125 55.47V60H189.775V55.35C189.775 54.53 189.57 53.905 189.16 53.475C188.76 53.035 188.215 52.815 187.525 52.815C186.815 52.815 186.25 53.045 185.83 53.505C185.41 53.955 185.2 54.61 185.2 55.47V60H183.835V51.78H185.2V52.965C185.47 52.535 185.83 52.205 186.28 51.975C186.74 51.745 187.245 51.63 187.795 51.63C188.485 51.63 189.095 51.785 189.625 52.095C190.155 52.405 190.55 52.86 190.81 53.46C191.04 52.88 191.42 52.43 191.95 52.11C192.48 51.79 193.07 51.63 193.72 51.63ZM203.993 50.445C203.733 50.445 203.513 50.355 203.333 50.175C203.153 49.995 203.063 49.775 203.063 49.515C203.063 49.255 203.153 49.035 203.333 48.855C203.513 48.675 203.733 48.585 203.993 48.585C204.243 48.585 204.453 48.675 204.623 48.855C204.803 49.035 204.893 49.255 204.893 49.515C204.893 49.775 204.803 49.995 204.623 50.175C204.453 50.355 204.243 50.445 203.993 50.445ZM204.653 51.78V60H203.288V51.78H204.653ZM209.889 60.135C209.259 60.135 208.694 60.03 208.194 59.82C207.694 59.6 207.299 59.3 207.009 58.92C206.719 58.53 206.559 58.085 206.529 57.585H207.939C207.979 57.995 208.169 58.33 208.509 58.59C208.859 58.85 209.314 58.98 209.874 58.98C210.394 58.98 210.804 58.865 211.104 58.635C211.404 58.405 211.554 58.115 211.554 57.765C211.554 57.405 211.394 57.14 211.074 56.97C210.754 56.79 210.259 56.615 209.589 56.445C208.979 56.285 208.479 56.125 208.089 55.965C207.709 55.795 207.379 55.55 207.099 55.23C206.829 54.9 206.694 54.47 206.694 53.94C206.694 53.52 206.819 53.135 207.069 52.785C207.319 52.435 207.674 52.16 208.134 51.96C208.594 51.75 209.119 51.645 209.709 51.645C210.619 51.645 211.354 51.875 211.914 52.335C212.474 52.795 212.774 53.425 212.814 54.225H211.449C211.419 53.795 211.244 53.45 210.924 53.19C210.614 52.93 210.194 52.8 209.664 52.8C209.174 52.8 208.784 52.905 208.494 53.115C208.204 53.325 208.059 53.6 208.059 53.94C208.059 54.21 208.144 54.435 208.314 54.615C208.494 54.785 208.714 54.925 208.974 55.035C209.244 55.135 209.614 55.25 210.084 55.38C210.674 55.54 211.154 55.7 211.524 55.86C211.894 56.01 212.209 56.24 212.469 56.55C212.739 56.86 212.879 57.265 212.889 57.765C212.889 58.215 212.764 58.62 212.514 58.98C212.264 59.34 211.909 59.625 211.449 59.835C210.999 60.035 210.479 60.135 209.889 60.135ZM221.725 60.135C221.095 60.135 220.53 60.03 220.03 59.82C219.53 59.6 219.135 59.3 218.845 58.92C218.555 58.53 218.395 58.085 218.365 57.585H219.775C219.815 57.995 220.005 58.33 220.345 58.59C220.695 58.85 221.15 58.98 221.71 58.98C222.23 58.98 222.64 58.865 222.94 58.635C223.24 58.405 223.39 58.115 223.39 57.765C223.39 57.405 223.23 57.14 222.91 56.97C222.59 56.79 222.095 56.615 221.425 56.445C220.815 56.285 220.315 56.125 219.925 55.965C219.545 55.795 219.215 55.55 218.935 55.23C218.665 54.9 218.53 54.47 218.53 53.94C218.53 53.52 218.655 53.135 218.905 52.785C219.155 52.435 219.51 52.16 219.97 51.96C220.43 51.75 220.955 51.645 221.545 51.645C222.455 51.645 223.19 51.875 223.75 52.335C224.31 52.795 224.61 53.425 224.65 54.225H223.285C223.255 53.795 223.08 53.45 222.76 53.19C222.45 52.93 222.03 52.8 221.5 52.8C221.01 52.8 220.62 52.905 220.33 53.115C220.04 53.325 219.895 53.6 219.895 53.94C219.895 54.21 219.98 54.435 220.15 54.615C220.33 54.785 220.55 54.925 220.81 55.035C221.08 55.135 221.45 55.25 221.92 55.38C222.51 55.54 222.99 55.7 223.36 55.86C223.73 56.01 224.045 56.24 224.305 56.55C224.575 56.86 224.715 57.265 224.725 57.765C224.725 58.215 224.6 58.62 224.35 58.98C224.1 59.34 223.745 59.625 223.285 59.835C222.835 60.035 222.315 60.135 221.725 60.135ZM227.357 50.445C227.097 50.445 226.877 50.355 226.697 50.175C226.517 49.995 226.427 49.775 226.427 49.515C226.427 49.255 226.517 49.035 226.697 48.855C226.877 48.675 227.097 48.585 227.357 48.585C227.607 48.585 227.817 48.675 227.987 48.855C228.167 49.035 228.257 49.255 228.257 49.515C228.257 49.775 228.167 49.995 227.987 50.175C227.817 50.355 227.607 50.445 227.357 50.445ZM228.017 51.78V60H226.652V51.78H228.017ZM240.228 51.63C240.868 51.63 241.438 51.765 241.938 52.035C242.438 52.295 242.833 52.69 243.123 53.22C243.413 53.75 243.558 54.395 243.558 55.155V60H242.208V55.35C242.208 54.53 242.003 53.905 241.593 53.475C241.193 53.035 240.648 52.815 239.958 52.815C239.248 52.815 238.683 53.045 238.263 53.505C237.843 53.955 237.633 54.61 237.633 55.47V60H236.283V55.35C236.283 54.53 236.078 53.905 235.668 53.475C235.268 53.035 234.723 52.815 234.033 52.815C233.323 52.815 232.758 53.045 232.338 53.505C231.918 53.955 231.708 54.61 231.708 55.47V60H230.343V51.78H231.708V52.965C231.978 52.535 232.338 52.205 232.788 51.975C233.248 51.745 233.753 51.63 234.303 51.63C234.993 51.63 235.603 51.785 236.133 52.095C236.663 52.405 237.058 52.86 237.318 53.46C237.548 52.88 237.928 52.43 238.458 52.11C238.988 51.79 239.578 51.63 240.228 51.63ZM247.163 53.295C247.433 52.825 247.833 52.435 248.363 52.125C248.903 51.805 249.528 51.645 250.238 51.645C250.968 51.645 251.628 51.82 252.218 52.17C252.818 52.52 253.288 53.015 253.628 53.655C253.968 54.285 254.138 55.02 254.138 55.86C254.138 56.69 253.968 57.43 253.628 58.08C253.288 58.73 252.818 59.235 252.218 59.595C251.628 59.955 250.968 60.135 250.238 60.135C249.538 60.135 248.918 59.98 248.378 59.67C247.848 59.35 247.443 58.955 247.163 58.485V63.9H245.798V51.78H247.163V53.295ZM252.743 55.86C252.743 55.24 252.618 54.7 252.368 54.24C252.118 53.78 251.778 53.43 251.348 53.19C250.928 52.95 250.463 52.83 249.953 52.83C249.453 52.83 248.988 52.955 248.558 53.205C248.138 53.445 247.798 53.8 247.538 54.27C247.288 54.73 247.163 55.265 247.163 55.875C247.163 56.495 247.288 57.04 247.538 57.51C247.798 57.97 248.138 58.325 248.558 58.575C248.988 58.815 249.453 58.935 249.953 58.935C250.463 58.935 250.928 58.815 251.348 58.575C251.778 58.325 252.118 57.97 252.368 57.51C252.618 57.04 252.743 56.49 252.743 55.86ZM257.299 48.9V60H255.934V48.9H257.299ZM266.706 51.78L261.756 63.87H260.346L261.966 59.91L258.651 51.78H260.166L262.746 58.44L265.296 51.78H266.706Z" fill="#969696"/>
<g clip-path="url(#clip0_2_1063)">
<path d="M56.7197 40.6592L42.5987 26.5381C41.6069 25.5464 40.2885 25 38.886 25H28C26.3454 25 25 26.3454 25 28V38.886C25 40.2886 25.5464 41.607 26.5381 42.5987L40.6592 56.7197C41.4729 57.5335 42.5994 58 43.75 58C44.9006 58 46.027 57.5335 46.8408 56.7197L56.7197 46.8408C57.5334 46.0271 57.9999 44.9006 57.9999 43.75C57.9999 42.5994 57.5335 41.4729 56.7197 40.6592ZM55.6592 45.7803L45.7803 55.6592C44.711 56.7285 42.7891 56.7285 41.7198 55.6592L27.5986 41.5381C26.8904 40.8298 26.5 39.8879 26.5 38.886V28C26.5 27.1732 27.1731 26.5 28 26.5H38.886C39.888 26.5 40.8299 26.8904 41.5381 27.5987L55.6592 41.7198C56.1939 42.2544 56.5 42.9942 56.5 43.75C56.5 44.5059 56.1939 45.2456 55.6592 45.7803Z" fill="#5FC400"/>
<path d="M31 28C29.3455 28 28 29.3454 28 31C28 32.6546 29.3455 34 31 34C32.6545 34 34 32.6545 34 31C34 29.3454 32.6546 28 31 28ZM31 32.5C30.1731 32.5 29.5 31.8269 29.5 31C29.5 30.1731 30.1731 29.5 31 29.5C31.8269 29.5 32.5 30.1731 32.5 31C32.5001 31.8269 31.827 32.5 31 32.5Z" fill="#5FC400"/>
<path d="M37.9507 40.0725C38.8281 39.1951 38.8281 37.7676 37.9507 36.8902C37.6585 36.598 37.6585 36.1219 37.9507 35.8304L38.4825 35.2994C38.763 35.0159 39.2574 35.0159 39.5423 35.2994C39.6836 35.4415 39.762 35.6297 39.762 35.8297C39.762 36.0303 39.6844 36.2179 39.5423 36.3592C39.2493 36.6522 39.2493 37.1268 39.5416 37.4205C39.8346 37.7135 40.3099 37.7127 40.6029 37.4212C41.0277 36.9964 41.2621 36.431 41.2621 35.8297C41.2621 35.2291 41.0277 34.6637 40.6029 34.2388C39.7533 33.3885 38.2694 33.3907 37.4213 34.2381L36.8895 34.7691C36.0135 35.6473 36.0135 37.0741 36.8902 37.9508C37.1824 38.2438 37.1824 38.7191 36.8902 39.0121L36.3592 39.5424C36.0772 39.8266 35.5843 39.8251 35.2994 39.5424C35.158 39.4003 35.0796 39.2121 35.0796 39.0121C35.0796 38.8114 35.1573 38.6232 35.2994 38.4826C35.5924 38.1896 35.5924 37.715 35.3001 37.4213C35.0071 37.1283 34.5318 37.129 34.2388 37.4206C33.8139 37.8454 33.5796 38.4108 33.5796 39.0121C33.5796 39.6127 33.8139 40.1781 34.2388 40.6029C34.6636 41.0277 35.229 41.2621 35.8296 41.2621C36.4309 41.2621 36.9964 41.0277 37.4204 40.6029L37.9507 40.0725Z" fill="#5FC400"/>
<path d="M42.7239 42.724C43.0169 42.431 43.0169 41.9564 42.7239 41.6635L41.6634 40.6029L43.2542 39.0121L44.8457 40.6029C45.1387 40.8959 45.6133 40.8959 45.9063 40.6029C46.1993 40.3099 46.1993 39.8353 45.9063 39.5424L43.7844 37.4213C43.4914 37.1283 43.0168 37.1283 42.7239 37.4213L37.4212 42.724C37.1282 43.017 37.1282 43.4916 37.4212 43.7846L39.5423 45.9064C39.6887 46.0529 39.8807 46.1261 40.0726 46.1261C40.2645 46.1261 40.4563 46.0529 40.6029 45.9064C40.8959 45.6134 40.8959 45.1388 40.6029 44.8459L39.012 43.2543L40.6029 41.6635L41.6634 42.724C41.8099 42.8705 42.0018 42.9438 42.1937 42.9438C42.3855 42.9437 42.5775 42.8704 42.7239 42.724Z" fill="#5FC400"/>
<path d="M45.9061 42.7231C45.9061 42.7238 45.9061 42.7238 45.9061 42.7238L42.723 45.9062C41.8477 46.7836 41.8477 48.2104 42.7237 49.0878C43.1625 49.5266 43.7388 49.7463 44.3145 49.7463C44.891 49.7463 45.4674 49.5266 45.9061 49.0878L49.0877 45.9062C49.9651 45.0287 49.9651 43.6013 49.0877 42.7231C48.2103 41.8472 46.7836 41.8472 45.9061 42.7231ZM48.0273 44.8457L44.8456 48.0274C44.5534 48.3196 44.0773 48.3211 43.7851 48.0274C43.4929 47.7351 43.4929 47.2591 43.7844 46.9668L46.9667 43.7852C47.2582 43.4922 47.7358 43.493 48.0273 43.7845C48.3195 44.0774 48.3195 44.5527 48.0273 44.8457Z" fill="#5FC400"/>
</g>
<defs>
<clipPath id="clip0_2_1063">
<rect width="33" height="33" fill="white" transform="translate(25 25)"/>
</clipPath>
</defs>
</svg>
