<svg width="266" height="83" viewBox="0 0 266 83" fill="none" xmlns="http://www.w3.org/2000/svg">
<rect width="83" height="83" rx="20" fill="#EFEAFF"/>
<path d="M118.6 18.1L114.48 32H111.9L108.98 21.48L105.88 32L103.32 32.02L99.38 18.1H101.8L104.68 29.42L107.8 18.1H110.36L113.26 29.36L116.16 18.1H118.6ZM130.58 26.22C130.58 26.6333 130.554 27.0067 130.5 27.34H122.08C122.147 28.22 122.474 28.9267 123.06 29.46C123.647 29.9933 124.367 30.26 125.22 30.26C126.447 30.26 127.314 29.7467 127.82 28.72H130.28C129.947 29.7333 129.34 30.5667 128.46 31.22C127.594 31.86 126.514 32.18 125.22 32.18C124.167 32.18 123.22 31.9467 122.38 31.48C121.554 31 120.9 30.3333 120.42 29.48C119.954 28.6133 119.72 27.6133 119.72 26.48C119.72 25.3467 119.947 24.3533 120.4 23.5C120.867 22.6333 121.514 21.9667 122.34 21.5C123.18 21.0333 124.14 20.8 125.22 20.8C126.26 20.8 127.187 21.0267 128 21.48C128.814 21.9333 129.447 22.5733 129.9 23.4C130.354 24.2133 130.58 25.1533 130.58 26.22ZM128.2 25.5C128.187 24.66 127.887 23.9867 127.3 23.48C126.714 22.9733 125.987 22.72 125.12 22.72C124.334 22.72 123.66 22.9733 123.1 23.48C122.54 23.9733 122.207 24.6467 122.1 25.5H128.2ZM135.104 22.62C135.491 22.0867 136.018 21.6533 136.684 21.32C137.364 20.9733 138.118 20.8 138.944 20.8C139.918 20.8 140.798 21.0333 141.584 21.5C142.371 21.9667 142.991 22.6333 143.444 23.5C143.898 24.3533 144.124 25.3333 144.124 26.44C144.124 27.5467 143.898 28.54 143.444 29.42C142.991 30.2867 142.364 30.9667 141.564 31.46C140.778 31.94 139.904 32.18 138.944 32.18C138.091 32.18 137.331 32.0133 136.664 31.68C136.011 31.3467 135.491 30.92 135.104 30.4V32H132.824V17.2H135.104V22.62ZM141.804 26.44C141.804 25.68 141.644 25.0267 141.324 24.48C141.018 23.92 140.604 23.5 140.084 23.22C139.578 22.9267 139.031 22.78 138.444 22.78C137.871 22.78 137.324 22.9267 136.804 23.22C136.298 23.5133 135.884 23.94 135.564 24.5C135.258 25.06 135.104 25.72 135.104 26.48C135.104 27.24 135.258 27.9067 135.564 28.48C135.884 29.04 136.298 29.4667 136.804 29.76C137.324 30.0533 137.871 30.2 138.444 30.2C139.031 30.2 139.578 30.0533 140.084 29.76C140.604 29.4533 141.018 29.0133 141.324 28.44C141.644 27.8667 141.804 27.2 141.804 26.44ZM159.954 29.16H154.134L153.134 32H150.754L155.734 18.08H158.374L163.354 32H160.954L159.954 29.16ZM159.314 27.3L157.054 20.84L154.774 27.3H159.314ZM167.8 22.6C168.186 22.0933 168.713 21.6667 169.38 21.32C170.046 20.9733 170.8 20.8 171.64 20.8C172.6 20.8 173.473 21.04 174.26 21.52C175.06 21.9867 175.686 22.6467 176.14 23.5C176.593 24.3533 176.82 25.3333 176.82 26.44C176.82 27.5467 176.593 28.54 176.14 29.42C175.686 30.2867 175.06 30.9667 174.26 31.46C173.473 31.94 172.6 32.18 171.64 32.18C170.8 32.18 170.053 32.0133 169.4 31.68C168.746 31.3333 168.213 30.9067 167.8 30.4V37.24H165.52V20.98H167.8V22.6ZM174.5 26.44C174.5 25.68 174.34 25.0267 174.02 24.48C173.713 23.92 173.3 23.5 172.78 23.22C172.273 22.9267 171.726 22.78 171.14 22.78C170.566 22.78 170.02 22.9267 169.5 23.22C168.993 23.5133 168.58 23.94 168.26 24.5C167.953 25.06 167.8 25.72 167.8 26.48C167.8 27.24 167.953 27.9067 168.26 28.48C168.58 29.04 168.993 29.4667 169.5 29.76C170.02 30.0533 170.566 30.2 171.14 30.2C171.726 30.2 172.273 30.0533 172.78 29.76C173.3 29.4533 173.713 29.0133 174.02 28.44C174.34 27.8667 174.5 27.2 174.5 26.44ZM181.354 22.6C181.741 22.0933 182.268 21.6667 182.934 21.32C183.601 20.9733 184.354 20.8 185.194 20.8C186.154 20.8 187.028 21.04 187.814 21.52C188.614 21.9867 189.241 22.6467 189.694 23.5C190.148 24.3533 190.374 25.3333 190.374 26.44C190.374 27.5467 190.148 28.54 189.694 29.42C189.241 30.2867 188.614 30.9667 187.814 31.46C187.028 31.94 186.154 32.18 185.194 32.18C184.354 32.18 183.608 32.0133 182.954 31.68C182.301 31.3333 181.768 30.9067 181.354 30.4V37.24H179.074V20.98H181.354V22.6ZM188.054 26.44C188.054 25.68 187.894 25.0267 187.574 24.48C187.268 23.92 186.854 23.5 186.334 23.22C185.828 22.9267 185.281 22.78 184.694 22.78C184.121 22.78 183.574 22.9267 183.054 23.22C182.548 23.5133 182.134 23.94 181.814 24.5C181.508 25.06 181.354 25.72 181.354 26.48C181.354 27.24 181.508 27.9067 181.814 28.48C182.134 29.04 182.548 29.4667 183.054 29.76C183.574 30.0533 184.121 30.2 184.694 30.2C185.281 30.2 185.828 30.0533 186.334 29.76C186.854 29.4533 187.268 29.0133 187.574 28.44C187.894 27.8667 188.054 27.2 188.054 26.44ZM194.909 17.2V32H192.629V17.2H194.909ZM199.062 19.52C198.649 19.52 198.302 19.38 198.022 19.1C197.742 18.82 197.602 18.4733 197.602 18.06C197.602 17.6467 197.742 17.3 198.022 17.02C198.302 16.74 198.649 16.6 199.062 16.6C199.462 16.6 199.802 16.74 200.082 17.02C200.362 17.3 200.502 17.6467 200.502 18.06C200.502 18.4733 200.362 18.82 200.082 19.1C199.802 19.38 199.462 19.52 199.062 19.52ZM200.182 20.98V32H197.902V20.98H200.182ZM202.416 26.48C202.416 25.3467 202.642 24.3533 203.096 23.5C203.562 22.6333 204.202 21.9667 205.016 21.5C205.829 21.0333 206.762 20.8 207.816 20.8C209.149 20.8 210.249 21.12 211.116 21.76C211.996 22.3867 212.589 23.2867 212.896 24.46H210.436C210.236 23.9133 209.916 23.4867 209.476 23.18C209.036 22.8733 208.482 22.72 207.816 22.72C206.882 22.72 206.136 23.0533 205.576 23.72C205.029 24.3733 204.756 25.2933 204.756 26.48C204.756 27.6667 205.029 28.5933 205.576 29.26C206.136 29.9267 206.882 30.26 207.816 30.26C209.136 30.26 210.009 29.68 210.436 28.52H212.896C212.576 29.64 211.976 30.5333 211.096 31.2C210.216 31.8533 209.122 32.18 207.816 32.18C206.762 32.18 205.829 31.9467 205.016 31.48C204.202 31 203.562 30.3333 203.096 29.48C202.642 28.6133 202.416 27.6133 202.416 26.48ZM214.408 26.44C214.408 25.3333 214.635 24.3533 215.088 23.5C215.555 22.6467 216.181 21.9867 216.968 21.52C217.768 21.04 218.648 20.8 219.608 20.8C220.475 20.8 221.228 20.9733 221.868 21.32C222.521 21.6533 223.041 22.0733 223.428 22.58V20.98H225.728V32H223.428V30.36C223.041 30.88 222.515 31.3133 221.848 31.66C221.181 32.0067 220.421 32.18 219.568 32.18C218.621 32.18 217.755 31.94 216.968 31.46C216.181 30.9667 215.555 30.2867 215.088 29.42C214.635 28.54 214.408 27.5467 214.408 26.44ZM223.428 26.48C223.428 25.72 223.268 25.06 222.948 24.5C222.641 23.94 222.235 23.5133 221.728 23.22C221.221 22.9267 220.675 22.78 220.088 22.78C219.501 22.78 218.955 22.9267 218.448 23.22C217.941 23.5 217.528 23.92 217.208 24.48C216.901 25.0267 216.748 25.68 216.748 26.44C216.748 27.2 216.901 27.8667 217.208 28.44C217.528 29.0133 217.941 29.4533 218.448 29.76C218.968 30.0533 219.515 30.2 220.088 30.2C220.675 30.2 221.221 30.0533 221.728 29.76C222.235 29.4667 222.641 29.04 222.948 28.48C223.268 27.9067 223.428 27.24 223.428 26.48ZM231.383 22.84V28.94C231.383 29.3533 231.476 29.6533 231.663 29.84C231.863 30.0133 232.196 30.1 232.663 30.1H234.063V32H232.263C231.236 32 230.449 31.76 229.903 31.28C229.356 30.8 229.083 30.02 229.083 28.94V22.84H227.783V20.98H229.083V18.24H231.383V20.98H234.063V22.84H231.383ZM237.324 19.52C236.911 19.52 236.564 19.38 236.284 19.1C236.004 18.82 235.864 18.4733 235.864 18.06C235.864 17.6467 236.004 17.3 236.284 17.02C236.564 16.74 236.911 16.6 237.324 16.6C237.724 16.6 238.064 16.74 238.344 17.02C238.624 17.3 238.764 17.6467 238.764 18.06C238.764 18.4733 238.624 18.82 238.344 19.1C238.064 19.38 237.724 19.52 237.324 19.52ZM238.444 20.98V32H236.164V20.98H238.444ZM246.218 32.18C245.178 32.18 244.238 31.9467 243.398 31.48C242.558 31 241.898 30.3333 241.418 29.48C240.938 28.6133 240.698 27.6133 240.698 26.48C240.698 25.36 240.944 24.3667 241.438 23.5C241.931 22.6333 242.604 21.9667 243.458 21.5C244.311 21.0333 245.264 20.8 246.318 20.8C247.371 20.8 248.324 21.0333 249.178 21.5C250.031 21.9667 250.704 22.6333 251.198 23.5C251.691 24.3667 251.938 25.36 251.938 26.48C251.938 27.6 251.684 28.5933 251.178 29.46C250.671 30.3267 249.978 31 249.098 31.48C248.231 31.9467 247.271 32.18 246.218 32.18ZM246.218 30.2C246.804 30.2 247.351 30.06 247.858 29.78C248.378 29.5 248.798 29.08 249.118 28.52C249.438 27.96 249.598 27.28 249.598 26.48C249.598 25.68 249.444 25.0067 249.138 24.46C248.831 23.9 248.424 23.48 247.918 23.2C247.411 22.92 246.864 22.78 246.278 22.78C245.691 22.78 245.144 22.92 244.638 23.2C244.144 23.48 243.751 23.9 243.458 24.46C243.164 25.0067 243.018 25.68 243.018 26.48C243.018 27.6667 243.318 28.5867 243.918 29.24C244.531 29.88 245.298 30.2 246.218 30.2ZM259.751 20.8C260.618 20.8 261.391 20.98 262.071 21.34C262.765 21.7 263.305 22.2333 263.691 22.94C264.078 23.6467 264.271 24.5 264.271 25.5V32H262.011V25.84C262.011 24.8533 261.765 24.1 261.271 23.58C260.778 23.0467 260.105 22.78 259.251 22.78C258.398 22.78 257.718 23.0467 257.211 23.58C256.718 24.1 256.471 24.8533 256.471 25.84V32H254.191V20.98H256.471V22.24C256.845 21.7867 257.318 21.4333 257.891 21.18C258.478 20.9267 259.098 20.8 259.751 20.8Z" fill="black"/>
<path d="M101.52 58.89H105.18V60H100.155V49.545H101.52V58.89ZM110.215 60.135C109.445 60.135 108.745 59.96 108.115 59.61C107.495 59.26 107.005 58.765 106.645 58.125C106.295 57.475 106.12 56.725 106.12 55.875C106.12 55.035 106.3 54.295 106.66 53.655C107.03 53.005 107.53 52.51 108.16 52.17C108.79 51.82 109.495 51.645 110.275 51.645C111.055 51.645 111.76 51.82 112.39 52.17C113.02 52.51 113.515 53 113.875 53.64C114.245 54.28 114.43 55.025 114.43 55.875C114.43 56.725 114.24 57.475 113.86 58.125C113.49 58.765 112.985 59.26 112.345 59.61C111.705 59.96 110.995 60.135 110.215 60.135ZM110.215 58.935C110.705 58.935 111.165 58.82 111.595 58.59C112.025 58.36 112.37 58.015 112.63 57.555C112.9 57.095 113.035 56.535 113.035 55.875C113.035 55.215 112.905 54.655 112.645 54.195C112.385 53.735 112.045 53.395 111.625 53.175C111.205 52.945 110.75 52.83 110.26 52.83C109.76 52.83 109.3 52.945 108.88 53.175C108.47 53.395 108.14 53.735 107.89 54.195C107.64 54.655 107.515 55.215 107.515 55.875C107.515 56.545 107.635 57.11 107.875 57.57C108.125 58.03 108.455 58.375 108.865 58.605C109.275 58.825 109.725 58.935 110.215 58.935ZM117.589 53.115C117.829 52.645 118.169 52.28 118.609 52.02C119.059 51.76 119.604 51.63 120.244 51.63V53.04H119.884C118.354 53.04 117.589 53.87 117.589 55.53V60H116.224V51.78H117.589V53.115ZM129.32 55.575C129.32 55.835 129.305 56.11 129.275 56.4H122.705C122.755 57.21 123.03 57.845 123.53 58.305C124.04 58.755 124.655 58.98 125.375 58.98C125.965 58.98 126.455 58.845 126.845 58.575C127.245 58.295 127.525 57.925 127.685 57.465H129.155C128.935 58.255 128.495 58.9 127.835 59.4C127.175 59.89 126.355 60.135 125.375 60.135C124.595 60.135 123.895 59.96 123.275 59.61C122.665 59.26 122.185 58.765 121.835 58.125C121.485 57.475 121.31 56.725 121.31 55.875C121.31 55.025 121.48 54.28 121.82 53.64C122.16 53 122.635 52.51 123.245 52.17C123.865 51.82 124.575 51.645 125.375 51.645C126.155 51.645 126.845 51.815 127.445 52.155C128.045 52.495 128.505 52.965 128.825 53.565C129.155 54.155 129.32 54.825 129.32 55.575ZM127.91 55.29C127.91 54.77 127.795 54.325 127.565 53.955C127.335 53.575 127.02 53.29 126.62 53.1C126.23 52.9 125.795 52.8 125.315 52.8C124.625 52.8 124.035 53.02 123.545 53.46C123.065 53.9 122.79 54.51 122.72 55.29H127.91ZM141.007 51.63C141.647 51.63 142.217 51.765 142.717 52.035C143.217 52.295 143.612 52.69 143.902 53.22C144.192 53.75 144.337 54.395 144.337 55.155V60H142.987V55.35C142.987 54.53 142.782 53.905 142.372 53.475C141.972 53.035 141.427 52.815 140.737 52.815C140.027 52.815 139.462 53.045 139.042 53.505C138.622 53.955 138.412 54.61 138.412 55.47V60H137.062V55.35C137.062 54.53 136.857 53.905 136.447 53.475C136.047 53.035 135.502 52.815 134.812 52.815C134.102 52.815 133.537 53.045 133.117 53.505C132.697 53.955 132.487 54.61 132.487 55.47V60H131.122V51.78H132.487V52.965C132.757 52.535 133.117 52.205 133.567 51.975C134.027 51.745 134.532 51.63 135.082 51.63C135.772 51.63 136.382 51.785 136.912 52.095C137.442 52.405 137.837 52.86 138.097 53.46C138.327 52.88 138.707 52.43 139.237 52.11C139.767 51.79 140.357 51.63 141.007 51.63ZM151.94 49.545V60H150.575V49.545H151.94ZM155.631 53.295C155.901 52.825 156.301 52.435 156.831 52.125C157.371 51.805 157.996 51.645 158.706 51.645C159.436 51.645 160.096 51.82 160.686 52.17C161.286 52.52 161.756 53.015 162.096 53.655C162.436 54.285 162.606 55.02 162.606 55.86C162.606 56.69 162.436 57.43 162.096 58.08C161.756 58.73 161.286 59.235 160.686 59.595C160.096 59.955 159.436 60.135 158.706 60.135C158.006 60.135 157.386 59.98 156.846 59.67C156.316 59.35 155.911 58.955 155.631 58.485V63.9H154.266V51.78H155.631V53.295ZM161.211 55.86C161.211 55.24 161.086 54.7 160.836 54.24C160.586 53.78 160.246 53.43 159.816 53.19C159.396 52.95 158.931 52.83 158.421 52.83C157.921 52.83 157.456 52.955 157.026 53.205C156.606 53.445 156.266 53.8 156.006 54.27C155.756 54.73 155.631 55.265 155.631 55.875C155.631 56.495 155.756 57.04 156.006 57.51C156.266 57.97 156.606 58.325 157.026 58.575C157.456 58.815 157.921 58.935 158.421 58.935C158.931 58.935 159.396 58.815 159.816 58.575C160.246 58.325 160.586 57.97 160.836 57.51C161.086 57.04 161.211 56.49 161.211 55.86ZM167.313 60.135C166.683 60.135 166.118 60.03 165.618 59.82C165.118 59.6 164.723 59.3 164.433 58.92C164.143 58.53 163.983 58.085 163.953 57.585H165.363C165.403 57.995 165.593 58.33 165.933 58.59C166.283 58.85 166.738 58.98 167.298 58.98C167.818 58.98 168.228 58.865 168.528 58.635C168.828 58.405 168.978 58.115 168.978 57.765C168.978 57.405 168.818 57.14 168.498 56.97C168.178 56.79 167.683 56.615 167.013 56.445C166.403 56.285 165.903 56.125 165.513 55.965C165.133 55.795 164.803 55.55 164.523 55.23C164.253 54.9 164.118 54.47 164.118 53.94C164.118 53.52 164.243 53.135 164.493 52.785C164.743 52.435 165.098 52.16 165.558 51.96C166.018 51.75 166.543 51.645 167.133 51.645C168.043 51.645 168.778 51.875 169.338 52.335C169.898 52.795 170.198 53.425 170.238 54.225H168.873C168.843 53.795 168.668 53.45 168.348 53.19C168.038 52.93 167.618 52.8 167.088 52.8C166.598 52.8 166.208 52.905 165.918 53.115C165.628 53.325 165.483 53.6 165.483 53.94C165.483 54.21 165.568 54.435 165.738 54.615C165.918 54.785 166.138 54.925 166.398 55.035C166.668 55.135 167.038 55.25 167.508 55.38C168.098 55.54 168.578 55.7 168.948 55.86C169.318 56.01 169.633 56.24 169.893 56.55C170.163 56.86 170.303 57.265 170.313 57.765C170.313 58.215 170.188 58.62 169.938 58.98C169.688 59.34 169.333 59.625 168.873 59.835C168.423 60.035 167.903 60.135 167.313 60.135ZM179.53 51.78V60H178.165V58.785C177.905 59.205 177.54 59.535 177.07 59.775C176.61 60.005 176.1 60.12 175.54 60.12C174.9 60.12 174.325 59.99 173.815 59.73C173.305 59.46 172.9 59.06 172.6 58.53C172.31 58 172.165 57.355 172.165 56.595V51.78H173.515V56.415C173.515 57.225 173.72 57.85 174.13 58.29C174.54 58.72 175.1 58.935 175.81 58.935C176.54 58.935 177.115 58.71 177.535 58.26C177.955 57.81 178.165 57.155 178.165 56.295V51.78H179.53ZM191.72 51.63C192.36 51.63 192.93 51.765 193.43 52.035C193.93 52.295 194.325 52.69 194.615 53.22C194.905 53.75 195.05 54.395 195.05 55.155V60H193.7V55.35C193.7 54.53 193.495 53.905 193.085 53.475C192.685 53.035 192.14 52.815 191.45 52.815C190.74 52.815 190.175 53.045 189.755 53.505C189.335 53.955 189.125 54.61 189.125 55.47V60H187.775V55.35C187.775 54.53 187.57 53.905 187.16 53.475C186.76 53.035 186.215 52.815 185.525 52.815C184.815 52.815 184.25 53.045 183.83 53.505C183.41 53.955 183.2 54.61 183.2 55.47V60H181.835V51.78H183.2V52.965C183.47 52.535 183.83 52.205 184.28 51.975C184.74 51.745 185.245 51.63 185.795 51.63C186.485 51.63 187.095 51.785 187.625 52.095C188.155 52.405 188.55 52.86 188.81 53.46C189.04 52.88 189.42 52.43 189.95 52.11C190.48 51.79 191.07 51.63 191.72 51.63ZM201.993 50.445C201.733 50.445 201.513 50.355 201.333 50.175C201.153 49.995 201.063 49.775 201.063 49.515C201.063 49.255 201.153 49.035 201.333 48.855C201.513 48.675 201.733 48.585 201.993 48.585C202.243 48.585 202.453 48.675 202.623 48.855C202.803 49.035 202.893 49.255 202.893 49.515C202.893 49.775 202.803 49.995 202.623 50.175C202.453 50.355 202.243 50.445 201.993 50.445ZM202.653 51.78V60H201.288V51.78H202.653ZM207.889 60.135C207.259 60.135 206.694 60.03 206.194 59.82C205.694 59.6 205.299 59.3 205.009 58.92C204.719 58.53 204.559 58.085 204.529 57.585H205.939C205.979 57.995 206.169 58.33 206.509 58.59C206.859 58.85 207.314 58.98 207.874 58.98C208.394 58.98 208.804 58.865 209.104 58.635C209.404 58.405 209.554 58.115 209.554 57.765C209.554 57.405 209.394 57.14 209.074 56.97C208.754 56.79 208.259 56.615 207.589 56.445C206.979 56.285 206.479 56.125 206.089 55.965C205.709 55.795 205.379 55.55 205.099 55.23C204.829 54.9 204.694 54.47 204.694 53.94C204.694 53.52 204.819 53.135 205.069 52.785C205.319 52.435 205.674 52.16 206.134 51.96C206.594 51.75 207.119 51.645 207.709 51.645C208.619 51.645 209.354 51.875 209.914 52.335C210.474 52.795 210.774 53.425 210.814 54.225H209.449C209.419 53.795 209.244 53.45 208.924 53.19C208.614 52.93 208.194 52.8 207.664 52.8C207.174 52.8 206.784 52.905 206.494 53.115C206.204 53.325 206.059 53.6 206.059 53.94C206.059 54.21 206.144 54.435 206.314 54.615C206.494 54.785 206.714 54.925 206.974 55.035C207.244 55.135 207.614 55.25 208.084 55.38C208.674 55.54 209.154 55.7 209.524 55.86C209.894 56.01 210.209 56.24 210.469 56.55C210.739 56.86 210.879 57.265 210.889 57.765C210.889 58.215 210.764 58.62 210.514 58.98C210.264 59.34 209.909 59.625 209.449 59.835C208.999 60.035 208.479 60.135 207.889 60.135ZM219.725 60.135C219.095 60.135 218.53 60.03 218.03 59.82C217.53 59.6 217.135 59.3 216.845 58.92C216.555 58.53 216.395 58.085 216.365 57.585H217.775C217.815 57.995 218.005 58.33 218.345 58.59C218.695 58.85 219.15 58.98 219.71 58.98C220.23 58.98 220.64 58.865 220.94 58.635C221.24 58.405 221.39 58.115 221.39 57.765C221.39 57.405 221.23 57.14 220.91 56.97C220.59 56.79 220.095 56.615 219.425 56.445C218.815 56.285 218.315 56.125 217.925 55.965C217.545 55.795 217.215 55.55 216.935 55.23C216.665 54.9 216.53 54.47 216.53 53.94C216.53 53.52 216.655 53.135 216.905 52.785C217.155 52.435 217.51 52.16 217.97 51.96C218.43 51.75 218.955 51.645 219.545 51.645C220.455 51.645 221.19 51.875 221.75 52.335C222.31 52.795 222.61 53.425 222.65 54.225H221.285C221.255 53.795 221.08 53.45 220.76 53.19C220.45 52.93 220.03 52.8 219.5 52.8C219.01 52.8 218.62 52.905 218.33 53.115C218.04 53.325 217.895 53.6 217.895 53.94C217.895 54.21 217.98 54.435 218.15 54.615C218.33 54.785 218.55 54.925 218.81 55.035C219.08 55.135 219.45 55.25 219.92 55.38C220.51 55.54 220.99 55.7 221.36 55.86C221.73 56.01 222.045 56.24 222.305 56.55C222.575 56.86 222.715 57.265 222.725 57.765C222.725 58.215 222.6 58.62 222.35 58.98C222.1 59.34 221.745 59.625 221.285 59.835C220.835 60.035 220.315 60.135 219.725 60.135ZM225.357 50.445C225.097 50.445 224.877 50.355 224.697 50.175C224.517 49.995 224.427 49.775 224.427 49.515C224.427 49.255 224.517 49.035 224.697 48.855C224.877 48.675 225.097 48.585 225.357 48.585C225.607 48.585 225.817 48.675 225.987 48.855C226.167 49.035 226.257 49.255 226.257 49.515C226.257 49.775 226.167 49.995 225.987 50.175C225.817 50.355 225.607 50.445 225.357 50.445ZM226.017 51.78V60H224.652V51.78H226.017ZM238.228 51.63C238.868 51.63 239.438 51.765 239.938 52.035C240.438 52.295 240.833 52.69 241.123 53.22C241.413 53.75 241.558 54.395 241.558 55.155V60H240.208V55.35C240.208 54.53 240.003 53.905 239.593 53.475C239.193 53.035 238.648 52.815 237.958 52.815C237.248 52.815 236.683 53.045 236.263 53.505C235.843 53.955 235.633 54.61 235.633 55.47V60H234.283V55.35C234.283 54.53 234.078 53.905 233.668 53.475C233.268 53.035 232.723 52.815 232.033 52.815C231.323 52.815 230.758 53.045 230.338 53.505C229.918 53.955 229.708 54.61 229.708 55.47V60H228.343V51.78H229.708V52.965C229.978 52.535 230.338 52.205 230.788 51.975C231.248 51.745 231.753 51.63 232.303 51.63C232.993 51.63 233.603 51.785 234.133 52.095C234.663 52.405 235.058 52.86 235.318 53.46C235.548 52.88 235.928 52.43 236.458 52.11C236.988 51.79 237.578 51.63 238.228 51.63ZM245.163 53.295C245.433 52.825 245.833 52.435 246.363 52.125C246.903 51.805 247.528 51.645 248.238 51.645C248.968 51.645 249.628 51.82 250.218 52.17C250.818 52.52 251.288 53.015 251.628 53.655C251.968 54.285 252.138 55.02 252.138 55.86C252.138 56.69 251.968 57.43 251.628 58.08C251.288 58.73 250.818 59.235 250.218 59.595C249.628 59.955 248.968 60.135 248.238 60.135C247.538 60.135 246.918 59.98 246.378 59.67C245.848 59.35 245.443 58.955 245.163 58.485V63.9H243.798V51.78H245.163V53.295ZM250.743 55.86C250.743 55.24 250.618 54.7 250.368 54.24C250.118 53.78 249.778 53.43 249.348 53.19C248.928 52.95 248.463 52.83 247.953 52.83C247.453 52.83 246.988 52.955 246.558 53.205C246.138 53.445 245.798 53.8 245.538 54.27C245.288 54.73 245.163 55.265 245.163 55.875C245.163 56.495 245.288 57.04 245.538 57.51C245.798 57.97 246.138 58.325 246.558 58.575C246.988 58.815 247.453 58.935 247.953 58.935C248.463 58.935 248.928 58.815 249.348 58.575C249.778 58.325 250.118 57.97 250.368 57.51C250.618 57.04 250.743 56.49 250.743 55.86ZM255.299 48.9V60H253.934V48.9H255.299ZM264.706 51.78L259.756 63.87H258.346L259.966 59.91L256.651 51.78H258.166L260.746 58.44L263.296 51.78H264.706Z" fill="#969696"/>
<path d="M24.8438 28.2031H26.125V29.4844H24.8438V28.2031Z" fill="#4628A4"/>
<path d="M27.4062 28.2031H28.6875V29.4844H27.4062V28.2031Z" fill="#4628A4"/>
<path d="M29.9688 28.2031H31.25V29.4844H29.9688V28.2031Z" fill="#4628A4"/>
<path d="M25.4844 44.2188H39.5781C39.748 44.2188 39.911 44.1513 40.0311 44.0311C40.1513 43.911 40.2188 43.748 40.2188 43.5781V33.3281C40.2188 33.1582 40.1513 32.9953 40.0311 32.8751C39.911 32.755 39.748 32.6875 39.5781 32.6875H25.4844C25.3145 32.6875 25.1515 32.755 25.0314 32.8751C24.9112 32.9953 24.8438 33.1582 24.8438 33.3281V43.5781C24.8438 43.748 24.9112 43.911 25.0314 44.0311C25.1515 44.1513 25.3145 44.2188 25.4844 44.2188ZM26.125 33.9688H38.9375V42.9375H26.125V33.9688Z" fill="#4628A4"/>
<path d="M25.4844 56.3906H39.5781C39.748 56.3906 39.911 56.3231 40.0311 56.203C40.1513 56.0829 40.2188 55.9199 40.2188 55.75V46.1406C40.2188 45.9707 40.1513 45.8078 40.0311 45.6876C39.911 45.5675 39.748 45.5 39.5781 45.5H25.4844C25.3145 45.5 25.1515 45.5675 25.0314 45.6876C24.9112 45.8078 24.8438 45.9707 24.8438 46.1406V55.75C24.8438 55.9199 24.9112 56.0829 25.0314 56.203C25.1515 56.3231 25.3145 56.3906 25.4844 56.3906ZM26.125 46.7812H38.9375V55.1094H26.125V46.7812Z" fill="#4628A4"/>
<path d="M51.1094 56.3906H52.3906V57.6719H51.1094V56.3906Z" fill="#4628A4"/>
<path d="M56.2344 56.3906H57.5156V57.6719H56.2344V56.3906Z" fill="#4628A4"/>
<path d="M54.3125 60.875C53.9727 60.875 53.6468 60.74 53.4065 60.4997C53.1662 60.2595 53.0312 59.9336 53.0312 59.5938H51.75C51.75 60.2734 52.02 60.9251 52.5005 61.4057C52.9811 61.8863 53.6329 62.1562 54.3125 62.1562C54.9921 62.1562 55.6439 61.8863 56.1245 61.4057C56.605 60.9251 56.875 60.2734 56.875 59.5938H55.5938C55.5938 59.9336 55.4588 60.2595 55.2185 60.4997C54.9782 60.74 54.6523 60.875 54.3125 60.875Z" fill="#4628A4"/>
<path d="M35.4141 37.8971L30.9297 35.3346C30.8322 35.2783 30.7216 35.2487 30.6091 35.2488C30.4965 35.2488 30.3859 35.2785 30.2885 35.3349C30.1911 35.3913 30.1102 35.4724 30.0541 35.5699C29.998 35.6675 29.9685 35.7781 29.9688 35.8907V41.0157C29.9685 41.1282 29.998 41.2389 30.0541 41.3364C30.1102 41.434 30.1911 41.515 30.2885 41.5714C30.3859 41.6278 30.4965 41.6575 30.6091 41.6576C30.7216 41.6576 30.8322 41.628 30.9297 41.5717L35.4141 39.0092C35.512 38.9532 35.5935 38.8722 35.6501 38.7746C35.7067 38.6769 35.7366 38.5661 35.7366 38.4532C35.7366 38.3403 35.7067 38.2294 35.6501 38.1318C35.5935 38.0341 35.512 37.9532 35.4141 37.8971ZM31.25 39.9112V36.9951L33.8023 38.4532L31.25 39.9112Z" fill="#4628A4"/>
<path d="M54.9532 44.8594C55.0751 44.8594 55.1944 44.8247 55.2972 44.7594C55.4001 44.694 55.4821 44.6007 55.5338 44.4903C55.5854 44.3799 55.6045 44.2571 55.5888 44.1363C55.5732 44.0155 55.5233 43.9016 55.4452 43.8081L52.2421 39.9644C52.1851 39.8959 52.1145 39.8402 52.0348 39.8006C51.955 39.761 51.8679 39.7384 51.779 39.7344C51.6899 39.729 51.6008 39.7429 51.5176 39.7752C51.4344 39.8074 51.3593 39.8573 51.2972 39.9214L50.3574 40.8619L49.0332 39.318C48.9714 39.2507 48.8962 39.197 48.8125 39.1602C48.7288 39.1235 48.6384 39.1045 48.547 39.1045C48.4556 39.1045 48.3652 39.1235 48.2815 39.1602C48.1978 39.197 48.1226 39.2507 48.0608 39.318L44.217 43.8023C44.1375 43.8954 44.0862 44.0092 44.0693 44.1305C44.0525 44.2517 44.0707 44.3753 44.1219 44.4865C44.173 44.5977 44.255 44.6919 44.358 44.758C44.461 44.8241 44.5808 44.8593 44.7033 44.8594H54.9532ZM46.096 43.5781L48.547 40.7184L50.998 43.5781H46.096ZM51.7072 41.3238L53.5855 43.5781H52.6854L51.1934 41.8375L51.7072 41.3238Z" fill="#4628A4"/>
<path d="M60.0781 26.2812H22.9219C22.752 26.2812 22.589 26.3487 22.4689 26.4689C22.3487 26.589 22.2812 26.752 22.2812 26.9219V58.3125C22.2812 58.4824 22.3487 58.6453 22.4689 58.7655C22.589 58.8856 22.752 58.9531 22.9219 58.9531H47.9389C48.1046 60.5873 48.8916 62.0954 50.1375 63.1659C51.3833 64.2364 52.9927 64.7874 54.6332 64.7052C56.2737 64.623 57.82 63.9137 58.9525 62.724C60.085 61.5343 60.7173 59.9551 60.7188 58.3125V26.9219C60.7188 26.752 60.6513 26.589 60.5311 26.4689C60.411 26.3487 60.248 26.2812 60.0781 26.2812ZM54.3125 63.4375C53.2989 63.4375 52.308 63.1369 51.4652 62.5738C50.6224 62.0106 49.9655 61.2102 49.5776 60.2738C49.1897 59.3373 49.0882 58.3068 49.286 57.3127C49.4837 56.3185 49.9718 55.4053 50.6886 54.6886C51.4053 53.9718 52.3185 53.4837 53.3127 53.286C54.3068 53.0882 55.3373 53.1897 56.2738 53.5776C57.2102 53.9655 58.0106 54.6224 58.5738 55.4652C59.1369 56.308 59.4375 57.2989 59.4375 58.3125C59.436 59.6713 58.8955 60.9739 57.9347 61.9347C56.9739 62.8955 55.6713 63.436 54.3125 63.4375ZM48.773 55.1094H42.7812V33.9687H56.875V52.445C55.4336 51.812 53.8092 51.7339 52.3138 52.2257C50.8183 52.7175 49.5574 53.7445 48.773 55.1094ZM59.4375 54.4854C59.073 53.9987 58.6417 53.5658 58.1562 53.1997V33.3281C58.1562 33.1582 58.0888 32.9953 57.9686 32.8751C57.8485 32.755 57.6855 32.6875 57.5156 32.6875H42.1406C41.9707 32.6875 41.8078 32.755 41.6876 32.8751C41.5675 32.9953 41.5 33.1582 41.5 33.3281V55.75C41.5 55.9199 41.5675 56.0828 41.6876 56.203C41.8078 56.3231 41.9707 56.3906 42.1406 56.3906H48.2016C48.07 56.8075 47.982 57.2369 47.9389 57.6719H23.5625V31.4062H59.4375V54.4854ZM59.4375 30.125H23.5625V27.5625H59.4375V30.125Z" fill="#4628A4"/>
<path d="M27.4062 48.0625H37.6562V49.3438H27.4062V48.0625Z" fill="#4628A4"/>
<path d="M27.4062 50.625H37.6562V51.9062H27.4062V50.625Z" fill="#4628A4"/>
</svg>
