<svg width="298" height="83" viewBox="0 0 298 83" fill="none" xmlns="http://www.w3.org/2000/svg">
<path d="M115.14 18.1V32H112.86V22.48L108.62 32H107.04L102.78 22.48V32H100.5V18.1H102.96L107.84 29L112.7 18.1H115.14ZM122.917 32.18C121.877 32.18 120.937 31.9467 120.097 31.48C119.257 31 118.597 30.3333 118.117 29.48C117.637 28.6133 117.397 27.6133 117.397 26.48C117.397 25.36 117.643 24.3667 118.137 23.5C118.63 22.6333 119.303 21.9667 120.157 21.5C121.01 21.0333 121.963 20.8 123.017 20.8C124.07 20.8 125.023 21.0333 125.877 21.5C126.73 21.9667 127.403 22.6333 127.897 23.5C128.39 24.3667 128.637 25.36 128.637 26.48C128.637 27.6 128.383 28.5933 127.877 29.46C127.37 30.3267 126.677 31 125.797 31.48C124.93 31.9467 123.97 32.18 122.917 32.18ZM122.917 30.2C123.503 30.2 124.05 30.06 124.557 29.78C125.077 29.5 125.497 29.08 125.817 28.52C126.137 27.96 126.297 27.28 126.297 26.48C126.297 25.68 126.143 25.0067 125.837 24.46C125.53 23.9 125.123 23.48 124.617 23.2C124.11 22.92 123.563 22.78 122.977 22.78C122.39 22.78 121.843 22.92 121.337 23.2C120.843 23.48 120.45 23.9 120.157 24.46C119.863 25.0067 119.717 25.68 119.717 26.48C119.717 27.6667 120.017 28.5867 120.617 29.24C121.23 29.88 121.997 30.2 122.917 30.2ZM133.171 22.62C133.557 22.0867 134.084 21.6533 134.751 21.32C135.431 20.9733 136.184 20.8 137.011 20.8C137.984 20.8 138.864 21.0333 139.651 21.5C140.437 21.9667 141.057 22.6333 141.511 23.5C141.964 24.3533 142.191 25.3333 142.191 26.44C142.191 27.5467 141.964 28.54 141.511 29.42C141.057 30.2867 140.431 30.9667 139.631 31.46C138.844 31.94 137.971 32.18 137.011 32.18C136.157 32.18 135.397 32.0133 134.731 31.68C134.077 31.3467 133.557 30.92 133.171 30.4V32H130.891V17.2H133.171V22.62ZM139.871 26.44C139.871 25.68 139.711 25.0267 139.391 24.48C139.084 23.92 138.671 23.5 138.151 23.22C137.644 22.9267 137.097 22.78 136.511 22.78C135.937 22.78 135.391 22.9267 134.871 23.22C134.364 23.5133 133.951 23.94 133.631 24.5C133.324 25.06 133.171 25.72 133.171 26.48C133.171 27.24 133.324 27.9067 133.631 28.48C133.951 29.04 134.364 29.4667 134.871 29.76C135.391 30.0533 135.937 30.2 136.511 30.2C137.097 30.2 137.644 30.0533 138.151 29.76C138.671 29.4533 139.084 29.0133 139.391 28.44C139.711 27.8667 139.871 27.2 139.871 26.44ZM145.605 19.52C145.192 19.52 144.845 19.38 144.565 19.1C144.285 18.82 144.145 18.4733 144.145 18.06C144.145 17.6467 144.285 17.3 144.565 17.02C144.845 16.74 145.192 16.6 145.605 16.6C146.005 16.6 146.345 16.74 146.625 17.02C146.905 17.3 147.045 17.6467 147.045 18.06C147.045 18.4733 146.905 18.82 146.625 19.1C146.345 19.38 146.005 19.52 145.605 19.52ZM146.725 20.98V32H144.445V20.98H146.725ZM151.999 17.2V32H149.719V17.2H151.999ZM165.092 26.22C165.092 26.6333 165.066 27.0067 165.012 27.34H156.592C156.659 28.22 156.986 28.9267 157.572 29.46C158.159 29.9933 158.879 30.26 159.732 30.26C160.959 30.26 161.826 29.7467 162.332 28.72H164.792C164.459 29.7333 163.852 30.5667 162.972 31.22C162.106 31.86 161.026 32.18 159.732 32.18C158.679 32.18 157.732 31.9467 156.892 31.48C156.066 31 155.412 30.3333 154.932 29.48C154.466 28.6133 154.232 27.6133 154.232 26.48C154.232 25.3467 154.459 24.3533 154.912 23.5C155.379 22.6333 156.026 21.9667 156.852 21.5C157.692 21.0333 158.652 20.8 159.732 20.8C160.772 20.8 161.699 21.0267 162.512 21.48C163.326 21.9333 163.959 22.5733 164.412 23.4C164.866 24.2133 165.092 25.1533 165.092 26.22ZM162.712 25.5C162.699 24.66 162.399 23.9867 161.812 23.48C161.226 22.9733 160.499 22.72 159.632 22.72C158.846 22.72 158.172 22.9733 157.612 23.48C157.052 23.9733 156.719 24.6467 156.612 25.5H162.712ZM180.911 29.16H175.091L174.091 32H171.711L176.691 18.08H179.331L184.311 32H181.911L180.911 29.16ZM180.271 27.3L178.011 20.84L175.731 27.3H180.271ZM188.757 22.6C189.143 22.0933 189.67 21.6667 190.337 21.32C191.003 20.9733 191.757 20.8 192.597 20.8C193.557 20.8 194.43 21.04 195.217 21.52C196.017 21.9867 196.643 22.6467 197.097 23.5C197.55 24.3533 197.777 25.3333 197.777 26.44C197.777 27.5467 197.55 28.54 197.097 29.42C196.643 30.2867 196.017 30.9667 195.217 31.46C194.43 31.94 193.557 32.18 192.597 32.18C191.757 32.18 191.01 32.0133 190.357 31.68C189.703 31.3333 189.17 30.9067 188.757 30.4V37.24H186.477V20.98H188.757V22.6ZM195.457 26.44C195.457 25.68 195.297 25.0267 194.977 24.48C194.67 23.92 194.257 23.5 193.737 23.22C193.23 22.9267 192.683 22.78 192.097 22.78C191.523 22.78 190.977 22.9267 190.457 23.22C189.95 23.5133 189.537 23.94 189.217 24.5C188.91 25.06 188.757 25.72 188.757 26.48C188.757 27.24 188.91 27.9067 189.217 28.48C189.537 29.04 189.95 29.4667 190.457 29.76C190.977 30.0533 191.523 30.2 192.097 30.2C192.683 30.2 193.23 30.0533 193.737 29.76C194.257 29.4533 194.67 29.0133 194.977 28.44C195.297 27.8667 195.457 27.2 195.457 26.44ZM202.311 22.6C202.698 22.0933 203.225 21.6667 203.891 21.32C204.558 20.9733 205.311 20.8 206.151 20.8C207.111 20.8 207.985 21.04 208.771 21.52C209.571 21.9867 210.198 22.6467 210.651 23.5C211.105 24.3533 211.331 25.3333 211.331 26.44C211.331 27.5467 211.105 28.54 210.651 29.42C210.198 30.2867 209.571 30.9667 208.771 31.46C207.985 31.94 207.111 32.18 206.151 32.18C205.311 32.18 204.565 32.0133 203.911 31.68C203.258 31.3333 202.725 30.9067 202.311 30.4V37.24H200.031V20.98H202.311V22.6ZM209.011 26.44C209.011 25.68 208.851 25.0267 208.531 24.48C208.225 23.92 207.811 23.5 207.291 23.22C206.785 22.9267 206.238 22.78 205.651 22.78C205.078 22.78 204.531 22.9267 204.011 23.22C203.505 23.5133 203.091 23.94 202.771 24.5C202.465 25.06 202.311 25.72 202.311 26.48C202.311 27.24 202.465 27.9067 202.771 28.48C203.091 29.04 203.505 29.4667 204.011 29.76C204.531 30.0533 205.078 30.2 205.651 30.2C206.238 30.2 206.785 30.0533 207.291 29.76C207.811 29.4533 208.225 29.0133 208.531 28.44C208.851 27.8667 209.011 27.2 209.011 26.44ZM215.866 17.2V32H213.586V17.2H215.866ZM220.019 19.52C219.606 19.52 219.259 19.38 218.979 19.1C218.699 18.82 218.559 18.4733 218.559 18.06C218.559 17.6467 218.699 17.3 218.979 17.02C219.259 16.74 219.606 16.6 220.019 16.6C220.419 16.6 220.759 16.74 221.039 17.02C221.319 17.3 221.459 17.6467 221.459 18.06C221.459 18.4733 221.319 18.82 221.039 19.1C220.759 19.38 220.419 19.52 220.019 19.52ZM221.139 20.98V32H218.859V20.98H221.139ZM223.373 26.48C223.373 25.3467 223.599 24.3533 224.053 23.5C224.519 22.6333 225.159 21.9667 225.973 21.5C226.786 21.0333 227.719 20.8 228.773 20.8C230.106 20.8 231.206 21.12 232.073 21.76C232.953 22.3867 233.546 23.2867 233.853 24.46H231.393C231.193 23.9133 230.873 23.4867 230.433 23.18C229.993 22.8733 229.439 22.72 228.773 22.72C227.839 22.72 227.093 23.0533 226.533 23.72C225.986 24.3733 225.713 25.2933 225.713 26.48C225.713 27.6667 225.986 28.5933 226.533 29.26C227.093 29.9267 227.839 30.26 228.773 30.26C230.093 30.26 230.966 29.68 231.393 28.52H233.853C233.533 29.64 232.933 30.5333 232.053 31.2C231.173 31.8533 230.079 32.18 228.773 32.18C227.719 32.18 226.786 31.9467 225.973 31.48C225.159 31 224.519 30.3333 224.053 29.48C223.599 28.6133 223.373 27.6133 223.373 26.48ZM235.365 26.44C235.365 25.3333 235.592 24.3533 236.045 23.5C236.512 22.6467 237.138 21.9867 237.925 21.52C238.725 21.04 239.605 20.8 240.565 20.8C241.432 20.8 242.185 20.9733 242.825 21.32C243.478 21.6533 243.998 22.0733 244.385 22.58V20.98H246.685V32H244.385V30.36C243.998 30.88 243.472 31.3133 242.805 31.66C242.138 32.0067 241.378 32.18 240.525 32.18C239.578 32.18 238.712 31.94 237.925 31.46C237.138 30.9667 236.512 30.2867 236.045 29.42C235.592 28.54 235.365 27.5467 235.365 26.44ZM244.385 26.48C244.385 25.72 244.225 25.06 243.905 24.5C243.598 23.94 243.192 23.5133 242.685 23.22C242.178 22.9267 241.632 22.78 241.045 22.78C240.458 22.78 239.912 22.9267 239.405 23.22C238.898 23.5 238.485 23.92 238.165 24.48C237.858 25.0267 237.705 25.68 237.705 26.44C237.705 27.2 237.858 27.8667 238.165 28.44C238.485 29.0133 238.898 29.4533 239.405 29.76C239.925 30.0533 240.472 30.2 241.045 30.2C241.632 30.2 242.178 30.0533 242.685 29.76C243.192 29.4667 243.598 29.04 243.905 28.48C244.225 27.9067 244.385 27.24 244.385 26.48ZM252.34 22.84V28.94C252.34 29.3533 252.433 29.6533 252.62 29.84C252.82 30.0133 253.153 30.1 253.62 30.1H255.02V32H253.22C252.193 32 251.406 31.76 250.86 31.28C250.313 30.8 250.04 30.02 250.04 28.94V22.84H248.74V20.98H250.04V18.24H252.34V20.98H255.02V22.84H252.34ZM258.281 19.52C257.868 19.52 257.521 19.38 257.241 19.1C256.961 18.82 256.821 18.4733 256.821 18.06C256.821 17.6467 256.961 17.3 257.241 17.02C257.521 16.74 257.868 16.6 258.281 16.6C258.681 16.6 259.021 16.74 259.301 17.02C259.581 17.3 259.721 17.6467 259.721 18.06C259.721 18.4733 259.581 18.82 259.301 19.1C259.021 19.38 258.681 19.52 258.281 19.52ZM259.401 20.98V32H257.121V20.98H259.401ZM267.175 32.18C266.135 32.18 265.195 31.9467 264.355 31.48C263.515 31 262.855 30.3333 262.375 29.48C261.895 28.6133 261.655 27.6133 261.655 26.48C261.655 25.36 261.901 24.3667 262.395 23.5C262.888 22.6333 263.561 21.9667 264.415 21.5C265.268 21.0333 266.221 20.8 267.275 20.8C268.328 20.8 269.281 21.0333 270.135 21.5C270.988 21.9667 271.661 22.6333 272.155 23.5C272.648 24.3667 272.895 25.36 272.895 26.48C272.895 27.6 272.641 28.5933 272.135 29.46C271.628 30.3267 270.935 31 270.055 31.48C269.188 31.9467 268.228 32.18 267.175 32.18ZM267.175 30.2C267.761 30.2 268.308 30.06 268.815 29.78C269.335 29.5 269.755 29.08 270.075 28.52C270.395 27.96 270.555 27.28 270.555 26.48C270.555 25.68 270.401 25.0067 270.095 24.46C269.788 23.9 269.381 23.48 268.875 23.2C268.368 22.92 267.821 22.78 267.235 22.78C266.648 22.78 266.101 22.92 265.595 23.2C265.101 23.48 264.708 23.9 264.415 24.46C264.121 25.0067 263.975 25.68 263.975 26.48C263.975 27.6667 264.275 28.5867 264.875 29.24C265.488 29.88 266.255 30.2 267.175 30.2ZM280.708 20.8C281.575 20.8 282.348 20.98 283.028 21.34C283.722 21.7 284.262 22.2333 284.648 22.94C285.035 23.6467 285.228 24.5 285.228 25.5V32H282.968V25.84C282.968 24.8533 282.722 24.1 282.228 23.58C281.735 23.0467 281.062 22.78 280.208 22.78C279.355 22.78 278.675 23.0467 278.168 23.58C277.675 24.1 277.428 24.8533 277.428 25.84V32H275.148V20.98H277.428V22.24C277.802 21.7867 278.275 21.4333 278.848 21.18C279.435 20.9267 280.055 20.8 280.708 20.8ZM292.137 32.18C291.27 32.18 290.49 32.0267 289.797 31.72C289.117 31.4 288.577 30.9733 288.177 30.44C287.777 29.8933 287.563 29.2867 287.537 28.62H289.897C289.937 29.0867 290.157 29.48 290.557 29.8C290.97 30.1067 291.483 30.26 292.097 30.26C292.737 30.26 293.23 30.14 293.577 29.9C293.937 29.6467 294.117 29.3267 294.117 28.94C294.117 28.5267 293.917 28.22 293.517 28.02C293.13 27.82 292.51 27.6 291.657 27.36C290.83 27.1333 290.157 26.9133 289.637 26.7C289.117 26.4867 288.663 26.16 288.277 25.72C287.903 25.28 287.717 24.7 287.717 23.98C287.717 23.3933 287.89 22.86 288.237 22.38C288.583 21.8867 289.077 21.5 289.717 21.22C290.37 20.94 291.117 20.8 291.957 20.8C293.21 20.8 294.217 21.12 294.977 21.76C295.75 22.3867 296.163 23.2467 296.217 24.34H293.937C293.897 23.8467 293.697 23.4533 293.337 23.16C292.977 22.8667 292.49 22.72 291.877 22.72C291.277 22.72 290.817 22.8333 290.497 23.06C290.177 23.2867 290.017 23.5867 290.017 23.96C290.017 24.2533 290.123 24.5 290.337 24.7C290.55 24.9 290.81 25.06 291.117 25.18C291.423 25.2867 291.877 25.4267 292.477 25.6C293.277 25.8133 293.93 26.0333 294.437 26.26C294.957 26.4733 295.403 26.7933 295.777 27.22C296.15 27.6467 296.343 28.2133 296.357 28.92C296.357 29.5467 296.183 30.1067 295.837 30.6C295.49 31.0933 294.997 31.48 294.357 31.76C293.73 32.04 292.99 32.18 292.137 32.18Z" fill="black"/>
<rect width="83" height="83" rx="20" fill="#FFE5DA"/>
<path d="M103.52 58.89H107.18V60H102.155V49.545H103.52V58.89ZM112.215 60.135C111.445 60.135 110.745 59.96 110.115 59.61C109.495 59.26 109.005 58.765 108.645 58.125C108.295 57.475 108.12 56.725 108.12 55.875C108.12 55.035 108.3 54.295 108.66 53.655C109.03 53.005 109.53 52.51 110.16 52.17C110.79 51.82 111.495 51.645 112.275 51.645C113.055 51.645 113.76 51.82 114.39 52.17C115.02 52.51 115.515 53 115.875 53.64C116.245 54.28 116.43 55.025 116.43 55.875C116.43 56.725 116.24 57.475 115.86 58.125C115.49 58.765 114.985 59.26 114.345 59.61C113.705 59.96 112.995 60.135 112.215 60.135ZM112.215 58.935C112.705 58.935 113.165 58.82 113.595 58.59C114.025 58.36 114.37 58.015 114.63 57.555C114.9 57.095 115.035 56.535 115.035 55.875C115.035 55.215 114.905 54.655 114.645 54.195C114.385 53.735 114.045 53.395 113.625 53.175C113.205 52.945 112.75 52.83 112.26 52.83C111.76 52.83 111.3 52.945 110.88 53.175C110.47 53.395 110.14 53.735 109.89 54.195C109.64 54.655 109.515 55.215 109.515 55.875C109.515 56.545 109.635 57.11 109.875 57.57C110.125 58.03 110.455 58.375 110.865 58.605C111.275 58.825 111.725 58.935 112.215 58.935ZM119.589 53.115C119.829 52.645 120.169 52.28 120.609 52.02C121.059 51.76 121.604 51.63 122.244 51.63V53.04H121.884C120.354 53.04 119.589 53.87 119.589 55.53V60H118.224V51.78H119.589V53.115ZM131.32 55.575C131.32 55.835 131.305 56.11 131.275 56.4H124.705C124.755 57.21 125.03 57.845 125.53 58.305C126.04 58.755 126.655 58.98 127.375 58.98C127.965 58.98 128.455 58.845 128.845 58.575C129.245 58.295 129.525 57.925 129.685 57.465H131.155C130.935 58.255 130.495 58.9 129.835 59.4C129.175 59.89 128.355 60.135 127.375 60.135C126.595 60.135 125.895 59.96 125.275 59.61C124.665 59.26 124.185 58.765 123.835 58.125C123.485 57.475 123.31 56.725 123.31 55.875C123.31 55.025 123.48 54.28 123.82 53.64C124.16 53 124.635 52.51 125.245 52.17C125.865 51.82 126.575 51.645 127.375 51.645C128.155 51.645 128.845 51.815 129.445 52.155C130.045 52.495 130.505 52.965 130.825 53.565C131.155 54.155 131.32 54.825 131.32 55.575ZM129.91 55.29C129.91 54.77 129.795 54.325 129.565 53.955C129.335 53.575 129.02 53.29 128.62 53.1C128.23 52.9 127.795 52.8 127.315 52.8C126.625 52.8 126.035 53.02 125.545 53.46C125.065 53.9 124.79 54.51 124.72 55.29H129.91ZM143.007 51.63C143.647 51.63 144.217 51.765 144.717 52.035C145.217 52.295 145.612 52.69 145.902 53.22C146.192 53.75 146.337 54.395 146.337 55.155V60H144.987V55.35C144.987 54.53 144.782 53.905 144.372 53.475C143.972 53.035 143.427 52.815 142.737 52.815C142.027 52.815 141.462 53.045 141.042 53.505C140.622 53.955 140.412 54.61 140.412 55.47V60H139.062V55.35C139.062 54.53 138.857 53.905 138.447 53.475C138.047 53.035 137.502 52.815 136.812 52.815C136.102 52.815 135.537 53.045 135.117 53.505C134.697 53.955 134.487 54.61 134.487 55.47V60H133.122V51.78H134.487V52.965C134.757 52.535 135.117 52.205 135.567 51.975C136.027 51.745 136.532 51.63 137.082 51.63C137.772 51.63 138.382 51.785 138.912 52.095C139.442 52.405 139.837 52.86 140.097 53.46C140.327 52.88 140.707 52.43 141.237 52.11C141.767 51.79 142.357 51.63 143.007 51.63ZM153.94 49.545V60H152.575V49.545H153.94ZM157.631 53.295C157.901 52.825 158.301 52.435 158.831 52.125C159.371 51.805 159.996 51.645 160.706 51.645C161.436 51.645 162.096 51.82 162.686 52.17C163.286 52.52 163.756 53.015 164.096 53.655C164.436 54.285 164.606 55.02 164.606 55.86C164.606 56.69 164.436 57.43 164.096 58.08C163.756 58.73 163.286 59.235 162.686 59.595C162.096 59.955 161.436 60.135 160.706 60.135C160.006 60.135 159.386 59.98 158.846 59.67C158.316 59.35 157.911 58.955 157.631 58.485V63.9H156.266V51.78H157.631V53.295ZM163.211 55.86C163.211 55.24 163.086 54.7 162.836 54.24C162.586 53.78 162.246 53.43 161.816 53.19C161.396 52.95 160.931 52.83 160.421 52.83C159.921 52.83 159.456 52.955 159.026 53.205C158.606 53.445 158.266 53.8 158.006 54.27C157.756 54.73 157.631 55.265 157.631 55.875C157.631 56.495 157.756 57.04 158.006 57.51C158.266 57.97 158.606 58.325 159.026 58.575C159.456 58.815 159.921 58.935 160.421 58.935C160.931 58.935 161.396 58.815 161.816 58.575C162.246 58.325 162.586 57.97 162.836 57.51C163.086 57.04 163.211 56.49 163.211 55.86ZM169.313 60.135C168.683 60.135 168.118 60.03 167.618 59.82C167.118 59.6 166.723 59.3 166.433 58.92C166.143 58.53 165.983 58.085 165.953 57.585H167.363C167.403 57.995 167.593 58.33 167.933 58.59C168.283 58.85 168.738 58.98 169.298 58.98C169.818 58.98 170.228 58.865 170.528 58.635C170.828 58.405 170.978 58.115 170.978 57.765C170.978 57.405 170.818 57.14 170.498 56.97C170.178 56.79 169.683 56.615 169.013 56.445C168.403 56.285 167.903 56.125 167.513 55.965C167.133 55.795 166.803 55.55 166.523 55.23C166.253 54.9 166.118 54.47 166.118 53.94C166.118 53.52 166.243 53.135 166.493 52.785C166.743 52.435 167.098 52.16 167.558 51.96C168.018 51.75 168.543 51.645 169.133 51.645C170.043 51.645 170.778 51.875 171.338 52.335C171.898 52.795 172.198 53.425 172.238 54.225H170.873C170.843 53.795 170.668 53.45 170.348 53.19C170.038 52.93 169.618 52.8 169.088 52.8C168.598 52.8 168.208 52.905 167.918 53.115C167.628 53.325 167.483 53.6 167.483 53.94C167.483 54.21 167.568 54.435 167.738 54.615C167.918 54.785 168.138 54.925 168.398 55.035C168.668 55.135 169.038 55.25 169.508 55.38C170.098 55.54 170.578 55.7 170.948 55.86C171.318 56.01 171.633 56.24 171.893 56.55C172.163 56.86 172.303 57.265 172.313 57.765C172.313 58.215 172.188 58.62 171.938 58.98C171.688 59.34 171.333 59.625 170.873 59.835C170.423 60.035 169.903 60.135 169.313 60.135ZM181.53 51.78V60H180.165V58.785C179.905 59.205 179.54 59.535 179.07 59.775C178.61 60.005 178.1 60.12 177.54 60.12C176.9 60.12 176.325 59.99 175.815 59.73C175.305 59.46 174.9 59.06 174.6 58.53C174.31 58 174.165 57.355 174.165 56.595V51.78H175.515V56.415C175.515 57.225 175.72 57.85 176.13 58.29C176.54 58.72 177.1 58.935 177.81 58.935C178.54 58.935 179.115 58.71 179.535 58.26C179.955 57.81 180.165 57.155 180.165 56.295V51.78H181.53ZM193.72 51.63C194.36 51.63 194.93 51.765 195.43 52.035C195.93 52.295 196.325 52.69 196.615 53.22C196.905 53.75 197.05 54.395 197.05 55.155V60H195.7V55.35C195.7 54.53 195.495 53.905 195.085 53.475C194.685 53.035 194.14 52.815 193.45 52.815C192.74 52.815 192.175 53.045 191.755 53.505C191.335 53.955 191.125 54.61 191.125 55.47V60H189.775V55.35C189.775 54.53 189.57 53.905 189.16 53.475C188.76 53.035 188.215 52.815 187.525 52.815C186.815 52.815 186.25 53.045 185.83 53.505C185.41 53.955 185.2 54.61 185.2 55.47V60H183.835V51.78H185.2V52.965C185.47 52.535 185.83 52.205 186.28 51.975C186.74 51.745 187.245 51.63 187.795 51.63C188.485 51.63 189.095 51.785 189.625 52.095C190.155 52.405 190.55 52.86 190.81 53.46C191.04 52.88 191.42 52.43 191.95 52.11C192.48 51.79 193.07 51.63 193.72 51.63ZM203.993 50.445C203.733 50.445 203.513 50.355 203.333 50.175C203.153 49.995 203.063 49.775 203.063 49.515C203.063 49.255 203.153 49.035 203.333 48.855C203.513 48.675 203.733 48.585 203.993 48.585C204.243 48.585 204.453 48.675 204.623 48.855C204.803 49.035 204.893 49.255 204.893 49.515C204.893 49.775 204.803 49.995 204.623 50.175C204.453 50.355 204.243 50.445 203.993 50.445ZM204.653 51.78V60H203.288V51.78H204.653ZM209.889 60.135C209.259 60.135 208.694 60.03 208.194 59.82C207.694 59.6 207.299 59.3 207.009 58.92C206.719 58.53 206.559 58.085 206.529 57.585H207.939C207.979 57.995 208.169 58.33 208.509 58.59C208.859 58.85 209.314 58.98 209.874 58.98C210.394 58.98 210.804 58.865 211.104 58.635C211.404 58.405 211.554 58.115 211.554 57.765C211.554 57.405 211.394 57.14 211.074 56.97C210.754 56.79 210.259 56.615 209.589 56.445C208.979 56.285 208.479 56.125 208.089 55.965C207.709 55.795 207.379 55.55 207.099 55.23C206.829 54.9 206.694 54.47 206.694 53.94C206.694 53.52 206.819 53.135 207.069 52.785C207.319 52.435 207.674 52.16 208.134 51.96C208.594 51.75 209.119 51.645 209.709 51.645C210.619 51.645 211.354 51.875 211.914 52.335C212.474 52.795 212.774 53.425 212.814 54.225H211.449C211.419 53.795 211.244 53.45 210.924 53.19C210.614 52.93 210.194 52.8 209.664 52.8C209.174 52.8 208.784 52.905 208.494 53.115C208.204 53.325 208.059 53.6 208.059 53.94C208.059 54.21 208.144 54.435 208.314 54.615C208.494 54.785 208.714 54.925 208.974 55.035C209.244 55.135 209.614 55.25 210.084 55.38C210.674 55.54 211.154 55.7 211.524 55.86C211.894 56.01 212.209 56.24 212.469 56.55C212.739 56.86 212.879 57.265 212.889 57.765C212.889 58.215 212.764 58.62 212.514 58.98C212.264 59.34 211.909 59.625 211.449 59.835C210.999 60.035 210.479 60.135 209.889 60.135ZM221.725 60.135C221.095 60.135 220.53 60.03 220.03 59.82C219.53 59.6 219.135 59.3 218.845 58.92C218.555 58.53 218.395 58.085 218.365 57.585H219.775C219.815 57.995 220.005 58.33 220.345 58.59C220.695 58.85 221.15 58.98 221.71 58.98C222.23 58.98 222.64 58.865 222.94 58.635C223.24 58.405 223.39 58.115 223.39 57.765C223.39 57.405 223.23 57.14 222.91 56.97C222.59 56.79 222.095 56.615 221.425 56.445C220.815 56.285 220.315 56.125 219.925 55.965C219.545 55.795 219.215 55.55 218.935 55.23C218.665 54.9 218.53 54.47 218.53 53.94C218.53 53.52 218.655 53.135 218.905 52.785C219.155 52.435 219.51 52.16 219.97 51.96C220.43 51.75 220.955 51.645 221.545 51.645C222.455 51.645 223.19 51.875 223.75 52.335C224.31 52.795 224.61 53.425 224.65 54.225H223.285C223.255 53.795 223.08 53.45 222.76 53.19C222.45 52.93 222.03 52.8 221.5 52.8C221.01 52.8 220.62 52.905 220.33 53.115C220.04 53.325 219.895 53.6 219.895 53.94C219.895 54.21 219.98 54.435 220.15 54.615C220.33 54.785 220.55 54.925 220.81 55.035C221.08 55.135 221.45 55.25 221.92 55.38C222.51 55.54 222.99 55.7 223.36 55.86C223.73 56.01 224.045 56.24 224.305 56.55C224.575 56.86 224.715 57.265 224.725 57.765C224.725 58.215 224.6 58.62 224.35 58.98C224.1 59.34 223.745 59.625 223.285 59.835C222.835 60.035 222.315 60.135 221.725 60.135ZM227.357 50.445C227.097 50.445 226.877 50.355 226.697 50.175C226.517 49.995 226.427 49.775 226.427 49.515C226.427 49.255 226.517 49.035 226.697 48.855C226.877 48.675 227.097 48.585 227.357 48.585C227.607 48.585 227.817 48.675 227.987 48.855C228.167 49.035 228.257 49.255 228.257 49.515C228.257 49.775 228.167 49.995 227.987 50.175C227.817 50.355 227.607 50.445 227.357 50.445ZM228.017 51.78V60H226.652V51.78H228.017ZM240.228 51.63C240.868 51.63 241.438 51.765 241.938 52.035C242.438 52.295 242.833 52.69 243.123 53.22C243.413 53.75 243.558 54.395 243.558 55.155V60H242.208V55.35C242.208 54.53 242.003 53.905 241.593 53.475C241.193 53.035 240.648 52.815 239.958 52.815C239.248 52.815 238.683 53.045 238.263 53.505C237.843 53.955 237.633 54.61 237.633 55.47V60H236.283V55.35C236.283 54.53 236.078 53.905 235.668 53.475C235.268 53.035 234.723 52.815 234.033 52.815C233.323 52.815 232.758 53.045 232.338 53.505C231.918 53.955 231.708 54.61 231.708 55.47V60H230.343V51.78H231.708V52.965C231.978 52.535 232.338 52.205 232.788 51.975C233.248 51.745 233.753 51.63 234.303 51.63C234.993 51.63 235.603 51.785 236.133 52.095C236.663 52.405 237.058 52.86 237.318 53.46C237.548 52.88 237.928 52.43 238.458 52.11C238.988 51.79 239.578 51.63 240.228 51.63ZM247.163 53.295C247.433 52.825 247.833 52.435 248.363 52.125C248.903 51.805 249.528 51.645 250.238 51.645C250.968 51.645 251.628 51.82 252.218 52.17C252.818 52.52 253.288 53.015 253.628 53.655C253.968 54.285 254.138 55.02 254.138 55.86C254.138 56.69 253.968 57.43 253.628 58.08C253.288 58.73 252.818 59.235 252.218 59.595C251.628 59.955 250.968 60.135 250.238 60.135C249.538 60.135 248.918 59.98 248.378 59.67C247.848 59.35 247.443 58.955 247.163 58.485V63.9H245.798V51.78H247.163V53.295ZM252.743 55.86C252.743 55.24 252.618 54.7 252.368 54.24C252.118 53.78 251.778 53.43 251.348 53.19C250.928 52.95 250.463 52.83 249.953 52.83C249.453 52.83 248.988 52.955 248.558 53.205C248.138 53.445 247.798 53.8 247.538 54.27C247.288 54.73 247.163 55.265 247.163 55.875C247.163 56.495 247.288 57.04 247.538 57.51C247.798 57.97 248.138 58.325 248.558 58.575C248.988 58.815 249.453 58.935 249.953 58.935C250.463 58.935 250.928 58.815 251.348 58.575C251.778 58.325 252.118 57.97 252.368 57.51C252.618 57.04 252.743 56.49 252.743 55.86ZM257.299 48.9V60H255.934V48.9H257.299ZM266.706 51.78L261.756 63.87H260.346L261.966 59.91L258.651 51.78H260.166L262.746 58.44L265.296 51.78H266.706Z" fill="#969696"/>
<path d="M48.9062 25.5312H35.0938C34.5304 25.532 33.9903 25.7561 33.592 26.1545C33.1936 26.5528 32.9695 27.0929 32.9688 27.6562V56.3438C32.9695 56.9071 33.1936 57.4472 33.592 57.8455C33.9903 58.2439 34.5304 58.468 35.0938 58.4688H48.9062C49.4696 58.468 50.0097 58.2439 50.408 57.8455C50.8064 57.4472 51.0305 56.9071 51.0312 56.3438V27.6562C51.0305 27.0929 50.8064 26.5528 50.408 26.1545C50.0097 25.7561 49.4696 25.532 48.9062 25.5312V25.5312ZM44.4863 26.5938L44.1874 27.6562H39.7588L39.4932 26.5938H44.4863ZM49.9688 56.3438C49.9684 56.6254 49.8563 56.8955 49.6571 57.0946C49.458 57.2938 49.1879 57.4059 48.9062 57.4062H35.0938C34.8121 57.4059 34.542 57.2938 34.3429 57.0946C34.1437 56.8955 34.0316 56.6254 34.0312 56.3438V27.6562C34.0316 27.3746 34.1437 27.1045 34.3429 26.9054C34.542 26.7062 34.8121 26.5941 35.0938 26.5938H38.3975L38.8284 28.3163C38.8572 28.4313 38.9235 28.5333 39.0169 28.6062C39.1102 28.6791 39.2253 28.7187 39.3438 28.7188H44.5898C44.7056 28.7187 44.8182 28.6809 44.9105 28.611C45.0028 28.5412 45.0698 28.443 45.1012 28.3316L45.5899 26.5938H48.9062C49.1879 26.5941 49.458 26.7062 49.6571 26.9054C49.8563 27.1045 49.9684 27.3746 49.9688 27.6562V56.3438Z" fill="#BB3800"/>
<path d="M39.3438 55.2812H35.625C35.4841 55.2812 35.349 55.3372 35.2493 55.4368C35.1497 55.5365 35.0938 55.6716 35.0938 55.8125C35.0938 55.9534 35.1497 56.0885 35.2493 56.1882C35.349 56.2878 35.4841 56.3438 35.625 56.3438H39.3438C39.4846 56.3438 39.6198 56.2878 39.7194 56.1882C39.819 56.0885 39.875 55.9534 39.875 55.8125C39.875 55.6716 39.819 55.5365 39.7194 55.4368C39.6198 55.3372 39.4846 55.2812 39.3438 55.2812Z" fill="#BB3800"/>
<path d="M41.4688 55.2812H40.9375C40.7966 55.2812 40.6615 55.3372 40.5618 55.4368C40.4622 55.5365 40.4062 55.6716 40.4062 55.8125C40.4062 55.9534 40.4622 56.0885 40.5618 56.1882C40.6615 56.2878 40.7966 56.3438 40.9375 56.3438H41.4688C41.6096 56.3438 41.7448 56.2878 41.8444 56.1882C41.944 56.0885 42 55.9534 42 55.8125C42 55.6716 41.944 55.5365 41.8444 55.4368C41.7448 55.3372 41.6096 55.2812 41.4688 55.2812Z" fill="#BB3800"/>
<path d="M43.8671 38.8882C43.8073 38.8523 43.741 38.8286 43.672 38.8183C43.6029 38.808 43.5326 38.8114 43.4649 38.8284C43.3972 38.8453 43.3335 38.8754 43.2775 38.9169C43.2214 38.9584 43.1741 39.0106 43.1382 39.0704L39.9507 44.3829C39.8782 44.5038 39.8567 44.6484 39.8909 44.7851C39.925 44.9218 40.0121 45.0393 40.1329 45.1118C40.2537 45.1843 40.3984 45.2058 40.5351 45.1717C40.6718 45.1375 40.7893 45.0504 40.8618 44.9296L44.0493 39.6171C44.0852 39.5573 44.109 39.491 44.1192 39.4219C44.1295 39.3529 44.1261 39.2826 44.1092 39.2149C44.0922 39.1472 44.0621 39.0835 44.0206 39.0275C43.9791 38.9714 43.9269 38.9241 43.8671 38.8882Z" fill="#BB3800"/>
<path d="M45.6024 39.0117C45.5588 38.9572 45.5049 38.9119 45.4438 38.8782C45.3827 38.8446 45.3155 38.8233 45.2462 38.8156C45.1061 38.8001 44.9656 38.8408 44.8556 38.9289C44.7456 39.017 44.675 39.1451 44.6595 39.2852C44.644 39.4252 44.6847 39.5657 44.7728 39.6758L46.6321 42L44.7728 44.3242C44.6847 44.4342 44.644 44.5747 44.6595 44.7148C44.675 44.8549 44.7456 44.983 44.8556 45.0711C44.9656 45.1591 45.1061 45.1999 45.2462 45.1844C45.3862 45.1688 45.5144 45.0983 45.6024 44.9883L47.7274 42.332C47.8029 42.2378 47.844 42.1207 47.844 42C47.844 41.8793 47.8029 41.7622 47.7274 41.668L45.6024 39.0117Z" fill="#BB3800"/>
<path d="M38.3975 44.9883C38.4856 45.0983 38.6138 45.1688 38.7538 45.1843C38.8939 45.1999 39.0344 45.1591 39.1444 45.0711C39.2544 44.983 39.325 44.8549 39.3405 44.7148C39.356 44.5747 39.3153 44.4342 39.2272 44.3242L37.3679 42L39.2272 39.6758C39.2708 39.6213 39.3033 39.5588 39.3227 39.4917C39.3421 39.4247 39.3482 39.3545 39.3405 39.2852C39.3328 39.2158 39.3115 39.1487 39.2779 39.0875C39.2443 39.0264 39.1989 38.9725 39.1444 38.9289C39.0899 38.8853 39.0274 38.8528 38.9604 38.8334C38.8934 38.814 38.8232 38.8079 38.7538 38.8156C38.6845 38.8233 38.6173 38.8446 38.5562 38.8782C38.4951 38.9119 38.4412 38.9572 38.3975 39.0117L36.2725 41.668C36.1971 41.7622 36.156 41.8793 36.156 42C36.156 42.1207 36.1971 42.2378 36.2725 42.332L38.3975 44.9883Z" fill="#BB3800"/>
</svg>
